<?xml version="1.0" encoding="UTF-8" standalone="no"?><svg xmlns="http://www.w3.org/2000/svg" xmlns:xlink="http://www.w3.org/1999/xlink" contentStyleType="text/css" height="397px" preserveAspectRatio="none" style="width:312px;height:397px;background:#FFFFFF;" version="1.1" viewBox="0 0 312 397" width="312px" zoomAndPan="magnify"><defs/><g><ellipse cx="167" cy="20" fill="#222222" rx="10" ry="10" style="stroke:#222222;stroke-width:1.0;"/><rect fill="#F1F1F1" height="35.0938" rx="12.5" ry="12.5" style="stroke:#181818;stroke-width:0.5;" width="122" x="106" y="50"/><text fill="#000000" font-family="sans-serif" font-size="12" lengthAdjust="spacing" textLength="102" x="116" y="72.457">Seite wird geladen</text><rect fill="#F1F1F1" height="50.1875" rx="12.5" ry="12.5" style="stroke:#181818;stroke-width:0.5;" width="230" x="52" y="105.0938"/><text fill="#000000" font-family="sans-serif" font-size="12" lengthAdjust="spacing" textLength="210" x="62" y="127.5508">Neue Instanz eines DarkMode Buttons</text><text fill="#000000" font-family="sans-serif" font-size="12" lengthAdjust="spacing" textLength="63" x="65" y="142.6445">wird erstellt</text><rect fill="#F1F1F1" height="50.1875" rx="12.5" ry="12.5" style="stroke:#181818;stroke-width:0.5;" width="112" x="111" y="175.2813"/><text fill="#000000" font-family="sans-serif" font-size="12" lengthAdjust="spacing" textLength="92" x="121" y="197.7383">Aktuelles Theme</text><text fill="#000000" font-family="sans-serif" font-size="12" lengthAdjust="spacing" textLength="71" x="121" y="212.832">wird gelesen</text><polygon fill="#F1F1F1" points="125,245.4688,209,245.4688,221,257.4688,209,269.4688,125,269.4688,113,257.4688,125,245.4688" style="stroke:#181818;stroke-width:0.5;"/><text fill="#000000" font-family="sans-serif" font-size="11" lengthAdjust="spacing" textLength="84" x="125" y="261.9697">darkMode == true</text><text fill="#000000" font-family="sans-serif" font-size="11" lengthAdjust="spacing" textLength="18" x="95" y="255.0518">yes</text><text fill="#000000" font-family="sans-serif" font-size="11" lengthAdjust="spacing" textLength="12" x="221" y="255.0518">no</text><rect fill="#F1F1F1" height="35.0938" rx="12.5" ry="12.5" style="stroke:#181818;stroke-width:0.5;" width="157" x="11" y="279.4688"/><text fill="#000000" font-family="sans-serif" font-size="12" lengthAdjust="spacing" textLength="137" x="21" y="301.9258">darkModeToggle.toggle()</text><rect fill="#F1F1F1" height="35.0938" rx="12.5" ry="12.5" style="stroke:#181818;stroke-width:0.5;" width="113" x="188" y="279.4688"/><text fill="#000000" font-family="sans-serif" font-size="12" lengthAdjust="spacing" textLength="93" x="198" y="301.9258">Einfaches Laden</text><polygon fill="#F1F1F1" points="167,320.5625,179,332.5625,167,344.5625,155,332.5625,167,320.5625" style="stroke:#181818;stroke-width:0.5;"/><ellipse cx="167" cy="375.5625" fill="none" rx="11" ry="11" style="stroke:#222222;stroke-width:1.0;"/><ellipse cx="167" cy="375.5625" fill="#222222" rx="6" ry="6" style="stroke:#111111;stroke-width:1.0;"/><line style="stroke:#181818;stroke-width:1.0;" x1="167" x2="167" y1="30" y2="50"/><polygon fill="#181818" points="163,40,167,50,171,40,167,44" style="stroke:#181818;stroke-width:1.0;"/><line style="stroke:#181818;stroke-width:1.0;" x1="167" x2="167" y1="85.0938" y2="105.0938"/><polygon fill="#181818" points="163,95.0938,167,105.0938,171,95.0938,167,99.0938" style="stroke:#181818;stroke-width:1.0;"/><line style="stroke:#181818;stroke-width:1.0;" x1="167" x2="167" y1="155.2813" y2="175.2813"/><polygon fill="#181818" points="163,165.2813,167,175.2813,171,165.2813,167,169.2813" style="stroke:#181818;stroke-width:1.0;"/><line style="stroke:#181818;stroke-width:1.0;" x1="113" x2="89.5" y1="257.4688" y2="257.4688"/><line style="stroke:#181818;stroke-width:1.0;" x1="89.5" x2="89.5" y1="257.4688" y2="279.4688"/><polygon fill="#181818" points="85.5,269.4688,89.5,279.4688,93.5,269.4688,89.5,273.4688" style="stroke:#181818;stroke-width:1.0;"/><line style="stroke:#181818;stroke-width:1.0;" x1="221" x2="244.5" y1="257.4688" y2="257.4688"/><line style="stroke:#181818;stroke-width:1.0;" x1="244.5" x2="244.5" y1="257.4688" y2="279.4688"/><polygon fill="#181818" points="240.5,269.4688,244.5,279.4688,248.5,269.4688,244.5,273.4688" style="stroke:#181818;stroke-width:1.0;"/><line style="stroke:#181818;stroke-width:1.0;" x1="89.5" x2="89.5" y1="314.5625" y2="332.5625"/><line style="stroke:#181818;stroke-width:1.0;" x1="89.5" x2="155" y1="332.5625" y2="332.5625"/><polygon fill="#181818" points="145,328.5625,155,332.5625,145,336.5625,149,332.5625" style="stroke:#181818;stroke-width:1.0;"/><line style="stroke:#181818;stroke-width:1.0;" x1="244.5" x2="244.5" y1="314.5625" y2="332.5625"/><line style="stroke:#181818;stroke-width:1.0;" x1="244.5" x2="179" y1="332.5625" y2="332.5625"/><polygon fill="#181818" points="189,328.5625,179,332.5625,189,336.5625,185,332.5625" style="stroke:#181818;stroke-width:1.0;"/><line style="stroke:#181818;stroke-width:1.0;" x1="167" x2="167" y1="225.4688" y2="245.4688"/><polygon fill="#181818" points="163,235.4688,167,245.4688,171,235.4688,167,239.4688" style="stroke:#181818;stroke-width:1.0;"/><line style="stroke:#181818;stroke-width:1.0;" x1="167" x2="167" y1="344.5625" y2="364.5625"/><polygon fill="#181818" points="163,354.5625,167,364.5625,171,354.5625,167,358.5625" style="stroke:#181818;stroke-width:1.0;"/><!--MD5=[e2eb6ef2c817cc40c59e8b11f92c635a]
@startuml Initialisierung
skinparam classFontSize 10
start
:Seite wird geladen;
:Neue Instanz eines DarkMode Buttons
 wird erstellt;
:Aktuelles Theme 
wird gelesen;
if(darkMode == true)then(yes)
    :darkModeToggle.toggle();
else(no)
    :Einfaches Laden;
endif

stop
@enduml

PlantUML version 1.2022.7(Mon Aug 22 19:01:30 CEST 2022)
(GPL source distribution)
Java Runtime: Java(TM) SE Runtime Environment
JVM: Java HotSpot(TM) 64-Bit Server VM
Default Encoding: Cp1252
Language: de
Country: DE
--></g></svg>