<?xml version="1.0" encoding="UTF-8" standalone="no"?><svg xmlns="http://www.w3.org/2000/svg" xmlns:xlink="http://www.w3.org/1999/xlink" contentStyleType="text/css" height="648px" preserveAspectRatio="none" style="width:529px;height:648px;background:#FFFFFF;" version="1.1" viewBox="0 0 529 648" width="529px" zoomAndPan="magnify"><defs/><g><ellipse cx="255" cy="20" fill="#222222" rx="10" ry="10" style="stroke:#222222;stroke-width:1.0;"/><rect fill="#F1F1F1" height="35.0938" rx="12.5" ry="12.5" style="stroke:#181818;stroke-width:0.5;" width="142" x="184" y="50"/><text fill="#000000" font-family="sans-serif" font-size="12" lengthAdjust="spacing" textLength="122" x="194" y="72.457">Variablen initialisieren</text><rect fill="#F1F1F1" height="35.0938" rx="12.5" ry="12.5" style="stroke:#181818;stroke-width:0.5;" width="235" x="137.5" y="105.0938"/><text fill="#000000" font-family="sans-serif" font-size="12" lengthAdjust="spacing" textLength="215" x="147.5" y="127.5508">Instanzen von PDCA-Klassen erzeugen</text><rect fill="#F1F1F1" height="35.0938" rx="12.5" ry="12.5" style="stroke:#181818;stroke-width:0.5;" width="122" x="194" y="209.1055"/><text fill="#000000" font-family="sans-serif" font-size="12" lengthAdjust="spacing" textLength="102" x="204" y="231.5625">Löschen aus Liste</text><polygon fill="#F1F1F1" points="199.5,160.1875,310.5,160.1875,322.5,172.1875,310.5,184.1875,199.5,184.1875,187.5,172.1875,199.5,160.1875" style="stroke:#181818;stroke-width:0.5;"/><text fill="#000000" font-family="sans-serif" font-size="11" lengthAdjust="spacing" textLength="8" x="259" y="195.6064">ja</text><text fill="#000000" font-family="sans-serif" font-size="11" lengthAdjust="spacing" textLength="111" x="199.5" y="176.6885">Arbeitspaket gelöscht?</text><polygon fill="#F1F1F1" points="255,264.1992,267,276.1992,255,288.1992,243,276.1992,255,264.1992" style="stroke:#181818;stroke-width:0.5;"/><polygon fill="#F1F1F1" points="220,352.1992,290,352.1992,302,364.1992,290,376.1992,220,376.1992,208,364.1992,220,352.1992" style="stroke:#181818;stroke-width:0.5;"/><text fill="#000000" font-family="sans-serif" font-size="11" lengthAdjust="spacing" textLength="70" x="220" y="368.7002">Positionstiefe?</text><rect fill="#F1F1F1" height="35.0938" rx="12.5" ry="12.5" style="stroke:#181818;stroke-width:0.5;" width="158" x="11" y="413.8711"/><text fill="#000000" font-family="sans-serif" font-size="12" lengthAdjust="spacing" textLength="138" x="21" y="436.3281">Aktuelle Sammelaufgabe</text><rect fill="#F1F1F1" height="35.0938" rx="12.5" ry="12.5" style="stroke:#181818;stroke-width:0.5;" width="149" x="15.5" y="483.9648"/><text fill="#000000" font-family="sans-serif" font-size="12" lengthAdjust="spacing" textLength="129" x="25.5" y="506.4219">Neue Position erstellen</text><polygon fill="#F1F1F1" points="288,413.8711,396,413.8711,408,425.8711,396,437.8711,288,437.8711,276,425.8711,288,413.8711" style="stroke:#181818;stroke-width:0.5;"/><text fill="#000000" font-family="sans-serif" font-size="11" lengthAdjust="spacing" textLength="108" x="288" y="430.3721">Existiert Arbeitspaket?</text><text fill="#000000" font-family="sans-serif" font-size="11" lengthAdjust="spacing" textLength="11" x="265" y="423.4541">Ja</text><text fill="#000000" font-family="sans-serif" font-size="11" lengthAdjust="spacing" textLength="21" x="408" y="423.4541">Nein</text><rect fill="#F1F1F1" height="35.0938" rx="12.5" ry="12.5" style="stroke:#181818;stroke-width:0.5;" width="131" x="199" y="447.8711"/><text fill="#000000" font-family="sans-serif" font-size="12" lengthAdjust="spacing" textLength="111" x="209" y="470.3281">Update Arbeitspaket</text><rect fill="#F1F1F1" height="35.0938" rx="12.5" ry="12.5" style="stroke:#181818;stroke-width:0.5;" width="139" x="350" y="447.8711"/><text fill="#000000" font-family="sans-serif" font-size="12" lengthAdjust="spacing" textLength="119" x="360" y="470.3281">Arbeitspaket erstellen</text><polygon fill="#F1F1F1" points="342,488.9648,354,500.9648,342,512.9648,330,500.9648,342,488.9648" style="stroke:#181818;stroke-width:0.5;"/><polygon fill="#F1F1F1" points="255,529.0586,255,529.0586,267,541.0586,255,553.0586,255,553.0586,243,541.0586,255,529.0586" style="stroke:#181818;stroke-width:0.5;"/><polygon fill="#F1F1F1" points="255,308.1992,267,320.1992,255,332.1992,243,320.1992,255,308.1992" style="stroke:#181818;stroke-width:0.5;"/><polygon fill="#F1F1F1" points="210.5,573.0586,299.5,573.0586,311.5,585.0586,299.5,597.0586,210.5,597.0586,198.5,585.0586,210.5,573.0586" style="stroke:#181818;stroke-width:0.5;"/><text fill="#000000" font-family="sans-serif" font-size="11" lengthAdjust="spacing" textLength="89" x="210.5" y="589.5596">Daten vorhanden?</text><ellipse cx="255" cy="627.0586" fill="none" rx="10" ry="10" style="stroke:#222222;stroke-width:1.5;"/><line style="stroke:#222222;stroke-width:2.5;" x1="248.8128" x2="261.1872" y1="620.8714" y2="633.2458"/><line style="stroke:#222222;stroke-width:2.5;" x1="261.1872" x2="248.8128" y1="620.8714" y2="633.2458"/><line style="stroke:#181818;stroke-width:1.0;" x1="255" x2="255" y1="30" y2="50"/><polygon fill="#181818" points="251,40,255,50,259,40,255,44" style="stroke:#181818;stroke-width:1.0;"/><line style="stroke:#181818;stroke-width:1.0;" x1="255" x2="255" y1="85.0938" y2="105.0938"/><polygon fill="#181818" points="251,95.0938,255,105.0938,259,95.0938,255,99.0938" style="stroke:#181818;stroke-width:1.0;"/><line style="stroke:#181818;stroke-width:1.0;" x1="255" x2="255" y1="184.1875" y2="209.1055"/><polygon fill="#181818" points="251,199.1055,255,209.1055,259,199.1055,255,203.1055" style="stroke:#181818;stroke-width:1.0;"/><line style="stroke:#181818;stroke-width:1.0;" x1="322.5" x2="334.5" y1="172.1875" y2="172.1875"/><polygon fill="#181818" points="330.5,216.6523,334.5,226.6523,338.5,216.6523,334.5,220.6523" style="stroke:#181818;stroke-width:1.0;"/><line style="stroke:#181818;stroke-width:1.0;" x1="334.5" x2="334.5" y1="172.1875" y2="276.1992"/><line style="stroke:#181818;stroke-width:1.0;" x1="334.5" x2="267" y1="276.1992" y2="276.1992"/><polygon fill="#181818" points="277,272.1992,267,276.1992,277,280.1992,273,276.1992" style="stroke:#181818;stroke-width:1.0;"/><line style="stroke:#181818;stroke-width:1.0;" x1="255" x2="255" y1="244.1992" y2="264.1992"/><polygon fill="#181818" points="251,254.1992,255,264.1992,259,254.1992,255,258.1992" style="stroke:#181818;stroke-width:1.0;"/><line style="stroke:#181818;stroke-width:1.0;" x1="255" x2="255" y1="140.1875" y2="160.1875"/><polygon fill="#181818" points="251,150.1875,255,160.1875,259,150.1875,255,154.1875" style="stroke:#181818;stroke-width:1.0;"/><line style="stroke:#181818;stroke-width:1.0;" x1="90" x2="90" y1="448.9648" y2="483.9648"/><polygon fill="#181818" points="86,473.9648,90,483.9648,94,473.9648,90,477.9648" style="stroke:#181818;stroke-width:1.0;"/><line style="stroke:#181818;stroke-width:1.0;" x1="276" x2="264.5" y1="425.8711" y2="425.8711"/><line style="stroke:#181818;stroke-width:1.0;" x1="264.5" x2="264.5" y1="425.8711" y2="447.8711"/><polygon fill="#181818" points="260.5,437.8711,264.5,447.8711,268.5,437.8711,264.5,441.8711" style="stroke:#181818;stroke-width:1.0;"/><line style="stroke:#181818;stroke-width:1.0;" x1="408" x2="419.5" y1="425.8711" y2="425.8711"/><line style="stroke:#181818;stroke-width:1.0;" x1="419.5" x2="419.5" y1="425.8711" y2="447.8711"/><polygon fill="#181818" points="415.5,437.8711,419.5,447.8711,423.5,437.8711,419.5,441.8711" style="stroke:#181818;stroke-width:1.0;"/><line style="stroke:#181818;stroke-width:1.0;" x1="264.5" x2="264.5" y1="482.9648" y2="500.9648"/><line style="stroke:#181818;stroke-width:1.0;" x1="264.5" x2="330" y1="500.9648" y2="500.9648"/><polygon fill="#181818" points="320,496.9648,330,500.9648,320,504.9648,324,500.9648" style="stroke:#181818;stroke-width:1.0;"/><line style="stroke:#181818;stroke-width:1.0;" x1="419.5" x2="419.5" y1="482.9648" y2="500.9648"/><line style="stroke:#181818;stroke-width:1.0;" x1="419.5" x2="354" y1="500.9648" y2="500.9648"/><polygon fill="#181818" points="364,496.9648,354,500.9648,364,504.9648,360,500.9648" style="stroke:#181818;stroke-width:1.0;"/><line style="stroke:#181818;stroke-width:1.0;" x1="208" x2="90" y1="364.1992" y2="364.1992"/><line style="stroke:#181818;stroke-width:1.0;" x1="90" x2="90" y1="364.1992" y2="413.8711"/><polygon fill="#181818" points="86,403.8711,90,413.8711,94,403.8711,90,407.8711" style="stroke:#181818;stroke-width:1.0;"/><text fill="#000000" font-family="sans-serif" font-size="11" lengthAdjust="spacing" textLength="40" x="93" y="393.5361">1 oder 2</text><line style="stroke:#181818;stroke-width:1.0;" x1="302" x2="342" y1="364.1992" y2="364.1992"/><line style="stroke:#181818;stroke-width:1.0;" x1="342" x2="342" y1="364.1992" y2="413.8711"/><polygon fill="#181818" points="338,403.8711,342,413.8711,346,403.8711,342,407.8711" style="stroke:#181818;stroke-width:1.0;"/><text fill="#000000" font-family="sans-serif" font-size="11" lengthAdjust="spacing" textLength="6" x="345" y="393.5361">3</text><line style="stroke:#181818;stroke-width:1.0;" x1="90" x2="90" y1="519.0586" y2="541.0586"/><line style="stroke:#181818;stroke-width:1.0;" x1="90" x2="243" y1="541.0586" y2="541.0586"/><polygon fill="#181818" points="233,537.0586,243,541.0586,233,545.0586,237,541.0586" style="stroke:#181818;stroke-width:1.0;"/><line style="stroke:#181818;stroke-width:1.0;" x1="342" x2="342" y1="512.9648" y2="541.0586"/><line style="stroke:#181818;stroke-width:1.0;" x1="342" x2="267" y1="541.0586" y2="541.0586"/><polygon fill="#181818" points="277,537.0586,267,541.0586,277,545.0586,273,541.0586" style="stroke:#181818;stroke-width:1.0;"/><line style="stroke:#181818;stroke-width:1.0;" x1="255" x2="255" y1="332.1992" y2="352.1992"/><polygon fill="#181818" points="251,342.1992,255,352.1992,259,342.1992,255,346.1992" style="stroke:#181818;stroke-width:1.0;"/><line style="stroke:#181818;stroke-width:1.0;" x1="311.5" x2="503" y1="585.0586" y2="585.0586"/><polygon fill="#181818" points="499,512.6289,503,502.6289,507,512.6289,503,508.6289" style="stroke:#181818;stroke-width:1.0;"/><line style="stroke:#181818;stroke-width:1.0;" x1="503" x2="503" y1="320.1992" y2="585.0586"/><line style="stroke:#181818;stroke-width:1.0;" x1="503" x2="267" y1="320.1992" y2="320.1992"/><polygon fill="#181818" points="277,316.1992,267,320.1992,277,324.1992,273,320.1992" style="stroke:#181818;stroke-width:1.0;"/><line style="stroke:#181818;stroke-width:1.0;" x1="255" x2="255" y1="553.0586" y2="573.0586"/><polygon fill="#181818" points="251,563.0586,255,573.0586,259,563.0586,255,567.0586" style="stroke:#181818;stroke-width:1.0;"/><line style="stroke:#181818;stroke-width:1.0;" x1="255" x2="255" y1="288.1992" y2="308.1992"/><polygon fill="#181818" points="251,298.1992,255,308.1992,259,298.1992,255,302.1992" style="stroke:#181818;stroke-width:1.0;"/><line style="stroke:#181818;stroke-width:1.0;" x1="255" x2="255" y1="597.0586" y2="617.0586"/><polygon fill="#181818" points="251,607.0586,255,617.0586,259,607.0586,255,611.0586" style="stroke:#181818;stroke-width:1.0;"/><!--MD5=[35abf87e0a7ef9097dc771ea55f705ab]
@startuml transfer


start
:Variablen initialisieren;
:Instanzen von PDCA-Klassen erzeugen;
if(Arbeitspaket gelöscht?)then(ja)
    :Löschen aus Liste;
endif
repeat
switch (Positionstiefe?)
case ( 1 oder 2)
    :Aktuelle Sammelaufgabe;
    :Neue Position erstellen;
case( 3)
    If(Existiert Arbeitspaket?)then(Ja)
        :Update Arbeitspaket;
    else(Nein)
        :Arbeitspaket erstellen;
    endif
endswitch
repeatwhile(Daten vorhanden?)
end



@enduml

PlantUML version 1.2022.7(Mon Aug 22 19:01:30 CEST 2022)
(GPL source distribution)
Java Runtime: Java(TM) SE Runtime Environment
JVM: Java HotSpot(TM) 64-Bit Server VM
Default Encoding: Cp1252
Language: de
Country: DE
--></g></svg>