<?xml version="1.0" encoding="UTF-8" standalone="no"?><svg xmlns="http://www.w3.org/2000/svg" xmlns:xlink="http://www.w3.org/1999/xlink" contentStyleType="text/css" height="667px" preserveAspectRatio="none" style="width:686px;height:667px;background:#FFFFFF;" version="1.1" viewBox="0 0 686 667" width="686px" zoomAndPan="magnify"><defs/><g><ellipse cx="336" cy="20" fill="#222222" rx="10" ry="10" style="stroke:#222222;stroke-width:1.0;"/><rect fill="#F1F1F1" height="35.0938" rx="12.5" ry="12.5" style="stroke:#181818;stroke-width:0.5;" width="156" x="258" y="50"/><text fill="#000000" font-family="sans-serif" font-size="12" lengthAdjust="spacing" textLength="136" x="268" y="72.457">Auslesen der Argumente</text><polygon fill="#F1F1F1" points="284.5,105.0938,387.5,105.0938,399.5,117.0938,387.5,129.0938,284.5,129.0938,272.5,117.0938,284.5,105.0938" style="stroke:#181818;stroke-width:0.5;"/><text fill="#000000" font-family="sans-serif" font-size="11" lengthAdjust="spacing" textLength="103" x="284.5" y="121.5947">Wert des 2.Argument</text><rect fill="#F1F1F1" height="35.0938" rx="12.5" ry="12.5" style="stroke:#181818;stroke-width:0.5;" width="142" x="29.5" y="166.7656"/><text fill="#000000" font-family="sans-serif" font-size="12" lengthAdjust="spacing" textLength="122" x="39.5" y="189.2227">Variablen initialisieren</text><rect fill="#F1F1F1" height="35.0938" rx="12.5" ry="12.5" style="stroke:#181818;stroke-width:0.5;" width="113" x="44" y="221.8594"/><text fill="#000000" font-family="sans-serif" font-size="12" lengthAdjust="spacing" textLength="93" x="54" y="244.3164">Worksheet laden</text><rect fill="#F1F1F1" height="35.0938" rx="12.5" ry="12.5" style="stroke:#181818;stroke-width:0.5;" width="127" x="37" y="382.8711"/><text fill="#000000" font-family="sans-serif" font-size="12" lengthAdjust="spacing" textLength="107" x="47" y="405.3281">Daten aktualisieren</text><polygon fill="#F1F1F1" points="32,333.9531,169,333.9531,181,345.9531,169,357.9531,32,357.9531,20,345.9531,32,333.9531" style="stroke:#181818;stroke-width:0.5;"/><text fill="#000000" font-family="sans-serif" font-size="11" lengthAdjust="spacing" textLength="8" x="104.5" y="369.3721">ja</text><text fill="#000000" font-family="sans-serif" font-size="11" lengthAdjust="spacing" textLength="137" x="32" y="350.4541">Haben sich Daten geändert?</text><text fill="#000000" font-family="sans-serif" font-size="11" lengthAdjust="spacing" textLength="20" x="181" y="343.5361">nein</text><polygon fill="#F1F1F1" points="100.5,442.8828,112.5,454.8828,100.5,466.8828,88.5,454.8828,100.5,442.8828" style="stroke:#181818;stroke-width:0.5;"/><polygon fill="#F1F1F1" points="100.5,276.9531,112.5,288.9531,100.5,300.9531,88.5,288.9531,100.5,276.9531" style="stroke:#181818;stroke-width:0.5;"/><polygon fill="#F1F1F1" points="56,514.8828,145,514.8828,157,526.8828,145,538.8828,56,538.8828,44,526.8828,56,514.8828" style="stroke:#181818;stroke-width:0.5;"/><text fill="#000000" font-family="sans-serif" font-size="11" lengthAdjust="spacing" textLength="89" x="56" y="531.3838">Daten vorhanden?</text><rect fill="#F1F1F1" height="35.0938" rx="12.5" ry="12.5" style="stroke:#181818;stroke-width:0.5;" width="142" x="347.25" y="166.7656"/><text fill="#000000" font-family="sans-serif" font-size="12" lengthAdjust="spacing" textLength="122" x="357.25" y="189.2227">Variablen initialisieren</text><rect fill="#F1F1F1" height="35.0938" rx="12.5" ry="12.5" style="stroke:#181818;stroke-width:0.5;" width="113" x="361.75" y="221.8594"/><text fill="#000000" font-family="sans-serif" font-size="12" lengthAdjust="spacing" textLength="93" x="371.75" y="244.3164">Worksheet laden</text><rect fill="#F1F1F1" height="35.0938" rx="12.5" ry="12.5" style="stroke:#181818;stroke-width:0.5;" width="144" x="346.25" y="276.9531"/><text fill="#000000" font-family="sans-serif" font-size="12" lengthAdjust="spacing" textLength="124" x="356.25" y="299.4102">Resourcen hinzufügen</text><polygon fill="#F1F1F1" points="376.75,404.0469,459.75,404.0469,471.75,416.0469,459.75,428.0469,376.75,428.0469,364.75,416.0469,376.75,404.0469" style="stroke:#181818;stroke-width:0.5;"/><text fill="#000000" font-family="sans-serif" font-size="11" lengthAdjust="spacing" textLength="83" x="376.75" y="420.5479">Sammelaufgabe?</text><text fill="#000000" font-family="sans-serif" font-size="11" lengthAdjust="spacing" textLength="8" x="356.75" y="413.6299">ja</text><text fill="#000000" font-family="sans-serif" font-size="11" lengthAdjust="spacing" textLength="20" x="471.75" y="413.6299">nein</text><rect fill="#F1F1F1" height="35.0938" rx="12.5" ry="12.5" style="stroke:#181818;stroke-width:0.5;" width="175" x="219" y="438.0469"/><text fill="#000000" font-family="sans-serif" font-size="12" lengthAdjust="spacing" textLength="155" x="229" y="460.5039">Sammelaufgabe hinzufügen</text><rect fill="#F1F1F1" height="50.1875" rx="12.5" ry="12.5" style="stroke:#181818;stroke-width:0.5;" width="232" x="414" y="438.0469"/><text fill="#000000" font-family="sans-serif" font-size="12" lengthAdjust="spacing" textLength="212" x="424" y="460.5039">Aufgabe zur aktuellen Sammelaufgabe</text><text fill="#000000" font-family="sans-serif" font-size="12" lengthAdjust="spacing" textLength="60" x="424" y="475.5977">hinzufügen</text><polygon fill="#F1F1F1" points="418.25,494.2344,430.25,506.2344,418.25,518.2344,406.25,506.2344,418.25,494.2344" style="stroke:#181818;stroke-width:0.5;"/><polygon fill="#F1F1F1" points="418.25,332.0469,430.25,344.0469,418.25,356.0469,406.25,344.0469,418.25,332.0469" style="stroke:#181818;stroke-width:0.5;"/><polygon fill="#F1F1F1" points="373.75,558.8828,462.75,558.8828,474.75,570.8828,462.75,582.8828,373.75,582.8828,361.75,570.8828,373.75,558.8828" style="stroke:#181818;stroke-width:0.5;"/><text fill="#000000" font-family="sans-serif" font-size="11" lengthAdjust="spacing" textLength="89" x="373.75" y="575.3838">Daten vorhanden?</text><polygon fill="#F1F1F1" points="336,592.8828,336,592.8828,348,604.8828,336,616.8828,336,616.8828,324,604.8828,336,592.8828" style="stroke:#181818;stroke-width:0.5;"/><ellipse cx="336" cy="646.8828" fill="none" rx="10" ry="10" style="stroke:#222222;stroke-width:1.5;"/><line style="stroke:#222222;stroke-width:2.5;" x1="329.8128" x2="342.1872" y1="640.6956" y2="653.07"/><line style="stroke:#222222;stroke-width:2.5;" x1="342.1872" x2="329.8128" y1="640.6956" y2="653.07"/><line style="stroke:#181818;stroke-width:1.0;" x1="336" x2="336" y1="30" y2="50"/><polygon fill="#181818" points="332,40,336,50,340,40,336,44" style="stroke:#181818;stroke-width:1.0;"/><line style="stroke:#181818;stroke-width:1.0;" x1="100.5" x2="100.5" y1="201.8594" y2="221.8594"/><polygon fill="#181818" points="96.5,211.8594,100.5,221.8594,104.5,211.8594,100.5,215.8594" style="stroke:#181818;stroke-width:1.0;"/><line style="stroke:#181818;stroke-width:1.0;" x1="100.5" x2="100.5" y1="357.9531" y2="382.8711"/><polygon fill="#181818" points="96.5,372.8711,100.5,382.8711,104.5,372.8711,100.5,376.8711" style="stroke:#181818;stroke-width:1.0;"/><line style="stroke:#181818;stroke-width:1.0;" x1="181" x2="193" y1="345.9531" y2="345.9531"/><polygon fill="#181818" points="189,390.418,193,400.418,197,390.418,193,394.418" style="stroke:#181818;stroke-width:1.0;"/><line style="stroke:#181818;stroke-width:1.0;" x1="193" x2="193" y1="345.9531" y2="454.8828"/><line style="stroke:#181818;stroke-width:1.0;" x1="193" x2="112.5" y1="454.8828" y2="454.8828"/><polygon fill="#181818" points="122.5,450.8828,112.5,454.8828,122.5,458.8828,118.5,454.8828" style="stroke:#181818;stroke-width:1.0;"/><line style="stroke:#181818;stroke-width:1.0;" x1="100.5" x2="100.5" y1="417.9648" y2="442.8828"/><polygon fill="#181818" points="96.5,432.8828,100.5,442.8828,104.5,432.8828,100.5,436.8828" style="stroke:#181818;stroke-width:1.0;"/><line style="stroke:#181818;stroke-width:1.0;" x1="100.5" x2="100.5" y1="300.9531" y2="333.9531"/><polygon fill="#181818" points="96.5,323.9531,100.5,333.9531,104.5,323.9531,100.5,327.9531" style="stroke:#181818;stroke-width:1.0;"/><line style="stroke:#181818;stroke-width:1.0;" x1="157" x2="205" y1="526.8828" y2="526.8828"/><polygon fill="#181818" points="201,410.418,205,400.418,209,410.418,205,406.418" style="stroke:#181818;stroke-width:1.0;"/><line style="stroke:#181818;stroke-width:1.0;" x1="205" x2="205" y1="288.9531" y2="526.8828"/><line style="stroke:#181818;stroke-width:1.0;" x1="205" x2="112.5" y1="288.9531" y2="288.9531"/><polygon fill="#181818" points="122.5,284.9531,112.5,288.9531,122.5,292.9531,118.5,288.9531" style="stroke:#181818;stroke-width:1.0;"/><line style="stroke:#181818;stroke-width:1.0;" x1="100.5" x2="100.5" y1="466.8828" y2="514.8828"/><polygon fill="#181818" points="96.5,504.8828,100.5,514.8828,104.5,504.8828,100.5,508.8828" style="stroke:#181818;stroke-width:1.0;"/><line style="stroke:#181818;stroke-width:1.0;" x1="100.5" x2="100.5" y1="256.9531" y2="276.9531"/><polygon fill="#181818" points="96.5,266.9531,100.5,276.9531,104.5,266.9531,100.5,270.9531" style="stroke:#181818;stroke-width:1.0;"/><line style="stroke:#181818;stroke-width:1.0;" x1="418.25" x2="418.25" y1="201.8594" y2="221.8594"/><polygon fill="#181818" points="414.25,211.8594,418.25,221.8594,422.25,211.8594,418.25,215.8594" style="stroke:#181818;stroke-width:1.0;"/><line style="stroke:#181818;stroke-width:1.0;" x1="418.25" x2="418.25" y1="256.9531" y2="276.9531"/><polygon fill="#181818" points="414.25,266.9531,418.25,276.9531,422.25,266.9531,418.25,270.9531" style="stroke:#181818;stroke-width:1.0;"/><line style="stroke:#181818;stroke-width:1.0;" x1="364.75" x2="306.5" y1="416.0469" y2="416.0469"/><line style="stroke:#181818;stroke-width:1.0;" x1="306.5" x2="306.5" y1="416.0469" y2="438.0469"/><polygon fill="#181818" points="302.5,428.0469,306.5,438.0469,310.5,428.0469,306.5,432.0469" style="stroke:#181818;stroke-width:1.0;"/><line style="stroke:#181818;stroke-width:1.0;" x1="471.75" x2="530" y1="416.0469" y2="416.0469"/><line style="stroke:#181818;stroke-width:1.0;" x1="530" x2="530" y1="416.0469" y2="438.0469"/><polygon fill="#181818" points="526,428.0469,530,438.0469,534,428.0469,530,432.0469" style="stroke:#181818;stroke-width:1.0;"/><line style="stroke:#181818;stroke-width:1.0;" x1="306.5" x2="306.5" y1="473.1406" y2="506.2344"/><line style="stroke:#181818;stroke-width:1.0;" x1="306.5" x2="406.25" y1="506.2344" y2="506.2344"/><polygon fill="#181818" points="396.25,502.2344,406.25,506.2344,396.25,510.2344,400.25,506.2344" style="stroke:#181818;stroke-width:1.0;"/><line style="stroke:#181818;stroke-width:1.0;" x1="530" x2="530" y1="488.2344" y2="506.2344"/><line style="stroke:#181818;stroke-width:1.0;" x1="530" x2="430.25" y1="506.2344" y2="506.2344"/><polygon fill="#181818" points="440.25,502.2344,430.25,506.2344,440.25,510.2344,436.25,506.2344" style="stroke:#181818;stroke-width:1.0;"/><line style="stroke:#181818;stroke-width:1.0;" x1="418.25" x2="418.25" y1="356.0469" y2="404.0469"/><polygon fill="#181818" points="414.25,394.0469,418.25,404.0469,422.25,394.0469,418.25,398.0469" style="stroke:#181818;stroke-width:1.0;"/><line style="stroke:#181818;stroke-width:1.0;" x1="474.75" x2="660" y1="570.8828" y2="570.8828"/><polygon fill="#181818" points="656,471.1406,660,461.1406,664,471.1406,660,467.1406" style="stroke:#181818;stroke-width:1.0;"/><line style="stroke:#181818;stroke-width:1.0;" x1="660" x2="660" y1="344.0469" y2="570.8828"/><line style="stroke:#181818;stroke-width:1.0;" x1="660" x2="430.25" y1="344.0469" y2="344.0469"/><polygon fill="#181818" points="440.25,340.0469,430.25,344.0469,440.25,348.0469,436.25,344.0469" style="stroke:#181818;stroke-width:1.0;"/><line style="stroke:#181818;stroke-width:1.0;" x1="418.25" x2="418.25" y1="518.2344" y2="558.8828"/><polygon fill="#181818" points="414.25,548.8828,418.25,558.8828,422.25,548.8828,418.25,552.8828" style="stroke:#181818;stroke-width:1.0;"/><line style="stroke:#181818;stroke-width:1.0;" x1="418.25" x2="418.25" y1="312.0469" y2="332.0469"/><polygon fill="#181818" points="414.25,322.0469,418.25,332.0469,422.25,322.0469,418.25,326.0469" style="stroke:#181818;stroke-width:1.0;"/><line style="stroke:#181818;stroke-width:1.0;" x1="272.5" x2="100.5" y1="117.0938" y2="117.0938"/><line style="stroke:#181818;stroke-width:1.0;" x1="100.5" x2="100.5" y1="117.0938" y2="166.7656"/><polygon fill="#181818" points="96.5,156.7656,100.5,166.7656,104.5,156.7656,100.5,160.7656" style="stroke:#181818;stroke-width:1.0;"/><text fill="#000000" font-family="sans-serif" font-size="11" lengthAdjust="spacing" textLength="34" x="103.5" y="146.4307">Update</text><line style="stroke:#181818;stroke-width:1.0;" x1="399.5" x2="418.25" y1="117.0938" y2="117.0938"/><line style="stroke:#181818;stroke-width:1.0;" x1="418.25" x2="418.25" y1="117.0938" y2="166.7656"/><polygon fill="#181818" points="414.25,156.7656,418.25,166.7656,422.25,156.7656,418.25,160.7656" style="stroke:#181818;stroke-width:1.0;"/><text fill="#000000" font-family="sans-serif" font-size="11" lengthAdjust="spacing" textLength="29" x="421.25" y="146.4307">Import</text><line style="stroke:#181818;stroke-width:1.0;" x1="100.5" x2="100.5" y1="538.8828" y2="604.8828"/><line style="stroke:#181818;stroke-width:1.0;" x1="100.5" x2="324" y1="604.8828" y2="604.8828"/><polygon fill="#181818" points="314,600.8828,324,604.8828,314,608.8828,318,604.8828" style="stroke:#181818;stroke-width:1.0;"/><line style="stroke:#181818;stroke-width:1.0;" x1="418.25" x2="418.25" y1="582.8828" y2="604.8828"/><line style="stroke:#181818;stroke-width:1.0;" x1="418.25" x2="348" y1="604.8828" y2="604.8828"/><polygon fill="#181818" points="358,600.8828,348,604.8828,358,608.8828,354,604.8828" style="stroke:#181818;stroke-width:1.0;"/><line style="stroke:#181818;stroke-width:1.0;" x1="336" x2="336" y1="85.0938" y2="105.0938"/><polygon fill="#181818" points="332,95.0938,336,105.0938,340,95.0938,336,99.0938" style="stroke:#181818;stroke-width:1.0;"/><line style="stroke:#181818;stroke-width:1.0;" x1="336" x2="336" y1="616.8828" y2="636.8828"/><polygon fill="#181818" points="332,626.8828,336,636.8828,340,626.8828,336,630.8828" style="stroke:#181818;stroke-width:1.0;"/><!--MD5=[4852b64be025e81603943415629a68d5]
@startuml export

start
:Auslesen der Argumente;
switch(Wert des 2.Argument)
case( Update)
    :Variablen initialisieren;
    :Worksheet laden;
    repeat
    if(Haben sich Daten geändert?)then(ja)
        :Daten aktualisieren;
    else(nein)
    endif
    repeatwhile(Daten vorhanden?);
case( Import)
    :Variablen initialisieren;
    :Worksheet laden;
    :Resourcen hinzufügen;
    repeat
    if(Sammelaufgabe?)then(ja)
        :Sammelaufgabe hinzufügen;
    else(nein)
        :Aufgabe zur aktuellen Sammelaufgabe 
        hinzufügen;
    endif 
    repeatwhile(Daten vorhanden?)

endswitch



end

@enduml

PlantUML version 1.2022.7(Mon Aug 22 19:01:30 CEST 2022)
(GPL source distribution)
Java Runtime: Java(TM) SE Runtime Environment
JVM: Java HotSpot(TM) 64-Bit Server VM
Default Encoding: Cp1252
Language: de
Country: DE
--></g></svg>