<?xml version="1.0" encoding="UTF-8" standalone="no"?><svg xmlns="http://www.w3.org/2000/svg" xmlns:xlink="http://www.w3.org/1999/xlink" contentStyleType="text/css" height="192px" preserveAspectRatio="none" style="width:166px;height:192px;background:#FFFFFF;" version="1.1" viewBox="0 0 166 192" width="166px" zoomAndPan="magnify"><defs/><g><!--MD5=[0c079930b1b4b12a14b63a013fe6b15b]
class DarkModeToggle--><g id="elem_DarkModeToggle"><rect codeLine="1" fill="#F1F1F1" height="171.2656" id="DarkModeToggle" rx="2.5" ry="2.5" style="stroke:#181818;stroke-width:0.5;" width="145" x="7" y="7"/><ellipse cx="23.8" cy="23" fill="#ADD1B2" rx="11" ry="11" style="stroke:#181818;stroke-width:1.0;"/><path d="M26.5656,18.875 Q26.7219,18.6563 26.9094,18.5469 Q27.0969,18.4375 27.3156,18.4375 Q27.6906,18.4375 27.925,18.6953 Q28.1594,18.9531 28.1594,19.5625 L28.1594,21.0156 Q28.1594,21.625 27.925,21.8906 Q27.6906,22.1563 27.3156,22.1563 Q26.9719,22.1563 26.7688,21.9531 Q26.5656,21.7656 26.4563,21.25 Q26.4094,20.8906 26.2219,20.7031 Q25.8938,20.3281 25.2844,20.1094 Q24.675,19.8906 24.05,19.8906 Q23.2844,19.8906 22.6516,20.2188 Q22.0188,20.5469 21.5266,21.2969 Q21.0344,22.0469 21.0344,23.0781 L21.0344,24.1719 Q21.0344,25.4063 21.925,26.2266 Q22.8156,27.0469 24.4094,27.0469 Q25.3469,27.0469 26.0031,26.7969 Q26.3938,26.6406 26.8156,26.2031 Q27.0813,25.9375 27.2297,25.8594 Q27.3781,25.7813 27.5813,25.7813 Q27.9094,25.7813 28.1672,26.0391 Q28.425,26.2969 28.425,26.6406 Q28.425,26.9844 28.0813,27.3906 Q27.5813,27.9688 26.7844,28.2969 Q25.7063,28.75 24.4094,28.75 Q22.8938,28.75 21.6906,28.125 Q20.7063,27.625 20.0188,26.5547 Q19.3313,25.4844 19.3313,24.2031 L19.3313,23.0469 Q19.3313,21.7188 19.9484,20.5703 Q20.5656,19.4219 21.6594,18.8047 Q22.7531,18.1875 23.9875,18.1875 Q24.7219,18.1875 25.3703,18.3516 Q26.0188,18.5156 26.5656,18.875 Z " fill="#000000"/><text fill="#000000" font-family="sans-serif" font-size="14" lengthAdjust="spacing" textLength="109" x="38.2" y="28.7285">DarkModeToggle</text><line style="stroke:#181818;stroke-width:0.5;" x1="8" x2="151" y1="39" y2="39"/><rect fill="none" height="6" style="stroke:#C82930;stroke-width:1.0;" width="6" x="15" y="50.3047"/><text fill="#000000" font-family="sans-serif" font-size="14" lengthAdjust="spacing" textLength="80" x="27" y="57.5332">toggleButton</text><rect fill="none" height="6" style="stroke:#C82930;stroke-width:1.0;" width="6" x="15" y="67.9141"/><text fill="#000000" font-family="sans-serif" font-size="14" lengthAdjust="spacing" textLength="31" x="27" y="75.1426">body</text><rect fill="none" height="6" style="stroke:#C82930;stroke-width:1.0;" width="6" x="15" y="85.5234"/><text fill="#000000" font-family="sans-serif" font-size="14" lengthAdjust="spacing" textLength="63" x="27" y="92.752">darkMode</text><line style="stroke:#181818;stroke-width:0.5;" x1="8" x2="151" y1="99.8281" y2="99.8281"/><ellipse cx="18" cy="114.1328" fill="#84BE84" rx="3" ry="3" style="stroke:#038048;stroke-width:1.0;"/><text fill="#000000" font-family="sans-serif" font-size="14" lengthAdjust="spacing" textLength="49" x="27" y="118.3613">toggle()</text><ellipse cx="18" cy="131.7422" fill="#84BE84" rx="3" ry="3" style="stroke:#038048;stroke-width:1.0;"/><text fill="#000000" font-family="sans-serif" font-size="14" lengthAdjust="spacing" textLength="78" x="27" y="135.9707">toggle_css()</text><ellipse cx="18" cy="149.3516" fill="#84BE84" rx="3" ry="3" style="stroke:#038048;stroke-width:1.0;"/><text fill="#000000" font-family="sans-serif" font-size="14" lengthAdjust="spacing" textLength="83" x="27" y="153.5801">toggle_html()</text><ellipse cx="18" cy="166.9609" fill="#84BE84" rx="3" ry="3" style="stroke:#038048;stroke-width:1.0;"/><text fill="#000000" font-family="sans-serif" font-size="14" lengthAdjust="spacing" textLength="119" x="27" y="171.1895">updateDarkMode()</text></g><!--MD5=[8f134f6c35737384fc484a1620bff9a3]
@startuml toggle
class DarkModeToggle{
    -toggleButton
    -body 
    -darkMode 
    +toggle()
    +toggle_css()
    +toggle_html()
    +updateDarkMode()
}
@enduml

PlantUML version 1.2022.7(Mon Aug 22 19:01:30 CEST 2022)
(GPL source distribution)
Java Runtime: Java(TM) SE Runtime Environment
JVM: Java HotSpot(TM) 64-Bit Server VM
Default Encoding: Cp1252
Language: de
Country: DE
--></g></svg>