<?xml version="1.0" encoding="UTF-8" standalone="no"?><svg xmlns="http://www.w3.org/2000/svg" xmlns:xlink="http://www.w3.org/1999/xlink" contentStyleType="text/css" height="481px" preserveAspectRatio="none" style="width:252px;height:481px;background:#FFFFFF;" version="1.1" viewBox="0 0 252 481" width="252px" zoomAndPan="magnify"><defs/><g><ellipse cx="126" cy="20" fill="#222222" rx="10" ry="10" style="stroke:#222222;stroke-width:1.0;"/><rect fill="#F1F1F1" height="35.0938" rx="12.5" ry="12.5" style="stroke:#181818;stroke-width:0.5;" width="122" x="65" y="50"/><text fill="#000000" font-family="sans-serif" font-size="12" lengthAdjust="spacing" textLength="102" x="75" y="72.457">Seite wird geladen</text><rect fill="#F1F1F1" height="35.0938" rx="12.5" ry="12.5" style="stroke:#181818;stroke-width:0.5;" width="132" x="60" y="105.0938"/><text fill="#000000" font-family="sans-serif" font-size="12" lengthAdjust="spacing" textLength="112" x="70" y="127.5508">Laden der Elemente</text><rect fill="#F1F1F1" height="50.1875" rx="12.5" ry="12.5" style="stroke:#181818;stroke-width:0.5;" width="230" x="11" y="160.1875"/><text fill="#000000" font-family="sans-serif" font-size="12" lengthAdjust="spacing" textLength="210" x="21" y="182.6445">Neue Instanz eines DarkMode Buttons</text><text fill="#000000" font-family="sans-serif" font-size="12" lengthAdjust="spacing" textLength="63" x="24" y="197.7383">wird erstellt</text><rect fill="#F1F1F1" height="50.1875" rx="12.5" ry="12.5" style="stroke:#181818;stroke-width:0.5;" width="112" x="70" y="230.375"/><text fill="#000000" font-family="sans-serif" font-size="12" lengthAdjust="spacing" textLength="92" x="80" y="252.832">Aktuelles Theme</text><text fill="#000000" font-family="sans-serif" font-size="12" lengthAdjust="spacing" textLength="71" x="80" y="267.9258">wird gelesen</text><rect fill="#F1F1F1" height="35.0938" rx="12.5" ry="12.5" style="stroke:#181818;stroke-width:0.5;" width="152" x="50" y="349.4805"/><text fill="#000000" font-family="sans-serif" font-size="12" lengthAdjust="spacing" textLength="132" x="60" y="371.9375">Auf DarkMode wechseln</text><polygon fill="#F1F1F1" points="80,300.5625,172,300.5625,184,312.5625,172,324.5625,80,324.5625,68,312.5625,80,300.5625" style="stroke:#181818;stroke-width:0.5;"/><text fill="#000000" font-family="sans-serif" font-size="11" lengthAdjust="spacing" textLength="8" x="130" y="335.9814">ja</text><text fill="#000000" font-family="sans-serif" font-size="11" lengthAdjust="spacing" textLength="92" x="80" y="317.0635">Ist darkMode aktiv?</text><text fill="#000000" font-family="sans-serif" font-size="11" lengthAdjust="spacing" textLength="20" x="184" y="310.1455">nein</text><polygon fill="#F1F1F1" points="126,404.5742,138,416.5742,126,428.5742,114,416.5742,126,404.5742" style="stroke:#181818;stroke-width:0.5;"/><ellipse cx="126" cy="459.5742" fill="none" rx="11" ry="11" style="stroke:#222222;stroke-width:1.0;"/><ellipse cx="126" cy="459.5742" fill="#222222" rx="6" ry="6" style="stroke:#111111;stroke-width:1.0;"/><line style="stroke:#181818;stroke-width:1.0;" x1="126" x2="126" y1="30" y2="50"/><polygon fill="#181818" points="122,40,126,50,130,40,126,44" style="stroke:#181818;stroke-width:1.0;"/><line style="stroke:#181818;stroke-width:1.0;" x1="126" x2="126" y1="85.0938" y2="105.0938"/><polygon fill="#181818" points="122,95.0938,126,105.0938,130,95.0938,126,99.0938" style="stroke:#181818;stroke-width:1.0;"/><line style="stroke:#181818;stroke-width:1.0;" x1="126" x2="126" y1="140.1875" y2="160.1875"/><polygon fill="#181818" points="122,150.1875,126,160.1875,130,150.1875,126,154.1875" style="stroke:#181818;stroke-width:1.0;"/><line style="stroke:#181818;stroke-width:1.0;" x1="126" x2="126" y1="210.375" y2="230.375"/><polygon fill="#181818" points="122,220.375,126,230.375,130,220.375,126,224.375" style="stroke:#181818;stroke-width:1.0;"/><line style="stroke:#181818;stroke-width:1.0;" x1="126" x2="126" y1="324.5625" y2="349.4805"/><polygon fill="#181818" points="122,339.4805,126,349.4805,130,339.4805,126,343.4805" style="stroke:#181818;stroke-width:1.0;"/><line style="stroke:#181818;stroke-width:1.0;" x1="184" x2="212" y1="312.5625" y2="312.5625"/><polygon fill="#181818" points="208,357.0273,212,367.0273,216,357.0273,212,361.0273" style="stroke:#181818;stroke-width:1.0;"/><line style="stroke:#181818;stroke-width:1.0;" x1="212" x2="212" y1="312.5625" y2="416.5742"/><line style="stroke:#181818;stroke-width:1.0;" x1="212" x2="138" y1="416.5742" y2="416.5742"/><polygon fill="#181818" points="148,412.5742,138,416.5742,148,420.5742,144,416.5742" style="stroke:#181818;stroke-width:1.0;"/><line style="stroke:#181818;stroke-width:1.0;" x1="126" x2="126" y1="384.5742" y2="404.5742"/><polygon fill="#181818" points="122,394.5742,126,404.5742,130,394.5742,126,398.5742" style="stroke:#181818;stroke-width:1.0;"/><line style="stroke:#181818;stroke-width:1.0;" x1="126" x2="126" y1="280.5625" y2="300.5625"/><polygon fill="#181818" points="122,290.5625,126,300.5625,130,290.5625,126,294.5625" style="stroke:#181818;stroke-width:1.0;"/><line style="stroke:#181818;stroke-width:1.0;" x1="126" x2="126" y1="428.5742" y2="448.5742"/><polygon fill="#181818" points="122,438.5742,126,448.5742,130,438.5742,126,442.5742" style="stroke:#181818;stroke-width:1.0;"/><!--MD5=[7407260987f23162b664186f54666240]
@startuml Initialisierung
start
:Seite wird geladen;
:Laden der Elemente;
:Neue Instanz eines DarkMode Buttons
 wird erstellt;
:Aktuelles Theme 
wird gelesen;
if(Ist darkMode aktiv?)then(ja)
    :Auf DarkMode wechseln;
else(nein)
endif

stop
@enduml

PlantUML version 1.2022.7(Mon Aug 22 19:01:30 CEST 2022)
(GPL source distribution)
Java Runtime: Java(TM) SE Runtime Environment
JVM: Java HotSpot(TM) 64-Bit Server VM
Default Encoding: Cp1252
Language: de
Country: DE
--></g></svg>