<?xml version="1.0" encoding="UTF-8" standalone="no"?><svg xmlns="http://www.w3.org/2000/svg" xmlns:xlink="http://www.w3.org/1999/xlink" contentStyleType="text/css" height="482px" preserveAspectRatio="none" style="width:1371px;height:482px;background:#FFFFFF;" version="1.1" viewBox="0 0 1371 482" width="1371px" zoomAndPan="magnify"><defs/><g><!--MD5=[1faafc9634d35b52c0c2ff6b29585bcc]
cluster Interne Datenbank--><g id="cluster_Interne Datenbank"><path d="M392,169 C392,159 471,159 471,159 C471,159 550,159 550,169 L550,332 C550,342 471,342 471,342 C471,342 392,342 392,332 L392,169 " fill="none" style="stroke:#181818;stroke-width:1.0;"/><path d="M392,169 C392,179 471,179 471,179 C471,179 550,179 550,169 " fill="none" style="stroke:#181818;stroke-width:1.0;"/><text fill="#000000" font-family="sans-serif" font-size="14" font-weight="bold" lengthAdjust="spacing" textLength="130" x="406" y="195.5332">Interne Datenbank</text></g><!--MD5=[e28e90e40c7abe3ad2e3c74856c7db8e]
cluster Tabelle--><g id="cluster_Tabelle"><rect fill="none" height="100" rx="2.5" ry="2.5" style="stroke:#181818;stroke-width:1.0;" width="110" x="416" y="218"/><path d="M477,218 L477,228.6094 L467,238.6094 L416,238.6094 " fill="none" style="stroke:#181818;stroke-width:1.0;"/><text fill="#000000" font-family="sans-serif" font-size="14" font-weight="bold" lengthAdjust="spacing" textLength="51" x="419" y="233.5332">Tabelle</text></g><!--MD5=[ccd8c561f4f8ad20cd8a7e1b0793c155]
cluster MS Project--><g id="cluster_MS Project"><polygon fill="none" points="699,16,709,6,1133,6,1133,308,1123,318,699,318,699,16" style="stroke:#181818;stroke-width:1.0;"/><line style="stroke:#181818;stroke-width:1.0;" x1="1123" x2="1133" y1="16" y2="6"/><line style="stroke:#181818;stroke-width:1.0;" x1="699" x2="1123" y1="16" y2="16"/><line style="stroke:#181818;stroke-width:1.0;" x1="1123" x2="1123" y1="16" y2="318"/><text fill="#000000" font-family="sans-serif" font-size="14" font-weight="bold" lengthAdjust="spacing" textLength="76" x="874" y="33.5332">MS Project</text></g><!--MD5=[bd62e40e925c3323a378d5adfb71efe3]
cluster MS Excel--><g id="cluster_MS Excel"><polygon fill="none" points="16,16,26,6,368,6,368,308,358,318,16,318,16,16" style="stroke:#181818;stroke-width:1.0;"/><line style="stroke:#181818;stroke-width:1.0;" x1="358" x2="368" y1="16" y2="6"/><line style="stroke:#181818;stroke-width:1.0;" x1="16" x2="358" y1="16" y2="16"/><line style="stroke:#181818;stroke-width:1.0;" x1="358" x2="358" y1="16" y2="318"/><text fill="#000000" font-family="sans-serif" font-size="14" font-weight="bold" lengthAdjust="spacing" textLength="64" x="156" y="33.5332">MS Excel</text></g><!--MD5=[d4854912b7e46cb60cbc8593abcbe5fc]
cluster Python--><g id="cluster_Python"><path d="M654.5,375 L703.5,375 A3.75,3.75 0 0 1 706,377.5 L713,398.6094 L1061.5,398.6094 A2.5,2.5 0 0 1 1064,401.1094 L1064,472.5 A2.5,2.5 0 0 1 1061.5,475 L654.5,475 A2.5,2.5 0 0 1 652,472.5 L652,377.5 A2.5,2.5 0 0 1 654.5,375 " fill="none" style="stroke:#000000;stroke-width:1.5;"/><line style="stroke:#000000;stroke-width:1.5;" x1="652" x2="713" y1="398.6094" y2="398.6094"/><text fill="#000000" font-family="sans-serif" font-size="14" font-weight="bold" lengthAdjust="spacing" textLength="48" x="656" y="391.5332">Python</text></g><!--MD5=[291841933448886219b05dc6911e487c]
entity Daten--><g id="elem_Daten"><rect fill="#F1F1F1" height="47.6094" rx="2.5" ry="2.5" style="stroke:#181818;stroke-width:0.5;" width="78" x="432" y="254"/><rect fill="#F1F1F1" height="10" style="stroke:#181818;stroke-width:0.5;" width="15" x="490" y="259"/><rect fill="#F1F1F1" height="2" style="stroke:#181818;stroke-width:0.5;" width="4" x="488" y="261"/><rect fill="#F1F1F1" height="2" style="stroke:#181818;stroke-width:0.5;" width="4" x="488" y="265"/><text fill="#000000" font-family="sans-serif" font-size="14" lengthAdjust="spacing" textLength="38" x="447" y="288.5332">Daten</text></g><!--MD5=[1655d592c7b731ac41b2ebb980b8848a]
entity Sub Start--><g id="elem_Sub Start"><rect fill="#F1F1F1" height="47.6094" rx="2.5" ry="2.5" style="stroke:#181818;stroke-width:0.5;" width="99" x="727.5" y="47"/><rect fill="#F1F1F1" height="10" style="stroke:#181818;stroke-width:0.5;" width="15" x="806.5" y="52"/><rect fill="#F1F1F1" height="2" style="stroke:#181818;stroke-width:0.5;" width="4" x="804.5" y="54"/><rect fill="#F1F1F1" height="2" style="stroke:#181818;stroke-width:0.5;" width="4" x="804.5" y="58"/><text fill="#000000" font-family="sans-serif" font-size="14" lengthAdjust="spacing" textLength="59" x="742.5" y="81.5332">Sub Start</text></g><!--MD5=[f8e5728fd593f6545dbb28b39477f2e3]
entity Sub Copy--><g id="elem_Sub Copy"><rect fill="#F1F1F1" height="47.6094" rx="2.5" ry="2.5" style="stroke:#181818;stroke-width:0.5;" width="102" x="862" y="47"/><rect fill="#F1F1F1" height="10" style="stroke:#181818;stroke-width:0.5;" width="15" x="944" y="52"/><rect fill="#F1F1F1" height="2" style="stroke:#181818;stroke-width:0.5;" width="4" x="942" y="54"/><rect fill="#F1F1F1" height="2" style="stroke:#181818;stroke-width:0.5;" width="4" x="942" y="58"/><text fill="#000000" font-family="sans-serif" font-size="14" lengthAdjust="spacing" textLength="62" x="877" y="81.5332">Sub Copy</text></g><!--MD5=[645fc6fedaa07223d8d4a35f35812e36]
entity Function CopyFile--><g id="elem_Function CopyFile"><rect fill="#F1F1F1" height="47.6094" rx="2.5" ry="2.5" style="stroke:#181818;stroke-width:0.5;" width="155" x="961.5" y="254"/><rect fill="#F1F1F1" height="10" style="stroke:#181818;stroke-width:0.5;" width="15" x="1096.5" y="259"/><rect fill="#F1F1F1" height="2" style="stroke:#181818;stroke-width:0.5;" width="4" x="1094.5" y="261"/><rect fill="#F1F1F1" height="2" style="stroke:#181818;stroke-width:0.5;" width="4" x="1094.5" y="265"/><text fill="#000000" font-family="sans-serif" font-size="14" lengthAdjust="spacing" textLength="115" x="976.5" y="288.5332">Function CopyFile</text></g><!--MD5=[5a70d840a129f9d19a7f1cdff88afc03]
entity Function link_python_excel--><g id="elem_Function link_python_excel"><rect fill="#F1F1F1" height="47.6094" rx="2.5" ry="2.5" style="stroke:#181818;stroke-width:0.5;" width="211" x="715.5" y="254"/><rect fill="#F1F1F1" height="10" style="stroke:#181818;stroke-width:0.5;" width="15" x="906.5" y="259"/><rect fill="#F1F1F1" height="2" style="stroke:#181818;stroke-width:0.5;" width="4" x="904.5" y="261"/><rect fill="#F1F1F1" height="2" style="stroke:#181818;stroke-width:0.5;" width="4" x="904.5" y="265"/><text fill="#000000" font-family="sans-serif" font-size="14" lengthAdjust="spacing" textLength="171" x="730.5" y="288.5332">Function link_python_excel</text></g><!--MD5=[a1f7d8263b39344a6544571e9c4eabca]
entity Arbeitskopie--><g id="elem_Arbeitskopie"><rect fill="#F1F1F1" height="47.6094" rx="2.5" ry="2.5" style="stroke:#181818;stroke-width:0.5;" width="118" x="999" y="47"/><rect fill="#F1F1F1" height="10" style="stroke:#181818;stroke-width:0.5;" width="15" x="1097" y="52"/><rect fill="#F1F1F1" height="2" style="stroke:#181818;stroke-width:0.5;" width="4" x="1095" y="54"/><rect fill="#F1F1F1" height="2" style="stroke:#181818;stroke-width:0.5;" width="4" x="1095" y="58"/><text fill="#000000" font-family="sans-serif" font-size="14" lengthAdjust="spacing" textLength="78" x="1014" y="81.5332">Arbeitskopie</text></g><!--MD5=[63315f774f611351abf59279b3c96964]
entity Sub Start_Transfer--><g id="elem_Sub Start_Transfer"><rect fill="#F1F1F1" height="47.6094" rx="2.5" ry="2.5" style="stroke:#181818;stroke-width:0.5;" width="161" x="32.5" y="47"/><rect fill="#F1F1F1" height="10" style="stroke:#181818;stroke-width:0.5;" width="15" x="173.5" y="52"/><rect fill="#F1F1F1" height="2" style="stroke:#181818;stroke-width:0.5;" width="4" x="171.5" y="54"/><rect fill="#F1F1F1" height="2" style="stroke:#181818;stroke-width:0.5;" width="4" x="171.5" y="58"/><text fill="#000000" font-family="sans-serif" font-size="14" lengthAdjust="spacing" textLength="121" x="47.5" y="81.5332">Sub Start_Transfer</text></g><!--MD5=[8188dc2e5c395697cdee1cf86e73cb0d]
entity Function link_python_project--><g id="elem_Function link_python_project"><rect fill="#F1F1F1" height="47.6094" rx="2.5" ry="2.5" style="stroke:#181818;stroke-width:0.5;" width="222" x="81" y="254"/><rect fill="#F1F1F1" height="10" style="stroke:#181818;stroke-width:0.5;" width="15" x="283" y="259"/><rect fill="#F1F1F1" height="2" style="stroke:#181818;stroke-width:0.5;" width="4" x="281" y="261"/><rect fill="#F1F1F1" height="2" style="stroke:#181818;stroke-width:0.5;" width="4" x="281" y="265"/><text fill="#000000" font-family="sans-serif" font-size="14" lengthAdjust="spacing" textLength="182" x="96" y="288.5332">Function link_python_project</text></g><!--MD5=[5b9c5fd3d38eecf7a74c43b79d9728e0]
entity Sub Transfer--><g id="elem_Sub Transfer"><rect fill="#F1F1F1" height="47.6094" rx="2.5" ry="2.5" style="stroke:#181818;stroke-width:0.5;" width="123" x="228.5" y="47"/><rect fill="#F1F1F1" height="10" style="stroke:#181818;stroke-width:0.5;" width="15" x="331.5" y="52"/><rect fill="#F1F1F1" height="2" style="stroke:#181818;stroke-width:0.5;" width="4" x="329.5" y="54"/><rect fill="#F1F1F1" height="2" style="stroke:#181818;stroke-width:0.5;" width="4" x="329.5" y="58"/><text fill="#000000" font-family="sans-serif" font-size="14" lengthAdjust="spacing" textLength="83" x="243.5" y="81.5332">Sub Transfer</text></g><!--MD5=[5a641e932479c70a38322fed9940fc6c]
entity export.py--><g id="elem_export.py"><rect fill="#F1F1F1" height="47.6094" rx="2.5" ry="2.5" style="stroke:#181818;stroke-width:0.5;" width="98" x="668" y="411"/><rect fill="#F1F1F1" height="10" style="stroke:#181818;stroke-width:0.5;" width="15" x="746" y="416"/><rect fill="#F1F1F1" height="2" style="stroke:#181818;stroke-width:0.5;" width="4" x="744" y="418"/><rect fill="#F1F1F1" height="2" style="stroke:#181818;stroke-width:0.5;" width="4" x="744" y="422"/><text fill="#000000" font-family="sans-serif" font-size="14" lengthAdjust="spacing" textLength="58" x="683" y="445.5332">export.py</text></g><!--MD5=[c003575791ab944a7fbf252c75067e46]
entity import.py--><g id="elem_import.py"><rect fill="#F1F1F1" height="47.6094" rx="2.5" ry="2.5" style="stroke:#181818;stroke-width:0.5;" width="98" x="801" y="411"/><rect fill="#F1F1F1" height="10" style="stroke:#181818;stroke-width:0.5;" width="15" x="879" y="416"/><rect fill="#F1F1F1" height="2" style="stroke:#181818;stroke-width:0.5;" width="4" x="877" y="418"/><rect fill="#F1F1F1" height="2" style="stroke:#181818;stroke-width:0.5;" width="4" x="877" y="422"/><text fill="#000000" font-family="sans-serif" font-size="14" lengthAdjust="spacing" textLength="58" x="816" y="445.5332">import.py</text></g><!--MD5=[3ae474c49a8d76d7b5b0f67b175972e0]
entity kopieren.py--><g id="elem_kopieren.py"><rect fill="#F1F1F1" height="47.6094" rx="2.5" ry="2.5" style="stroke:#181818;stroke-width:0.5;" width="114" x="934" y="411"/><rect fill="#F1F1F1" height="10" style="stroke:#181818;stroke-width:0.5;" width="15" x="1028" y="416"/><rect fill="#F1F1F1" height="2" style="stroke:#181818;stroke-width:0.5;" width="4" x="1026" y="418"/><rect fill="#F1F1F1" height="2" style="stroke:#181818;stroke-width:0.5;" width="4" x="1026" y="422"/><text fill="#000000" font-family="sans-serif" font-size="14" lengthAdjust="spacing" textLength="74" x="949" y="445.5332">kopieren.py</text></g><!--MD5=[6d1a5a1923bb885a8b32936f211e4682]
link Sub Copy to Function CopyFile--><g id="link_Sub Copy_Function CopyFile"><path d="M927.21,95.12 C950.62,133.21 997.19,208.98 1022.2,249.66 " fill="none" id="Sub Copy-to-Function CopyFile" style="stroke:#181818;stroke-width:1.0;"/><polygon fill="#181818" points="1024.84,253.97,1023.5535,244.2055,1022.2299,249.7054,1016.73,248.3817,1024.84,253.97" style="stroke:#181818;stroke-width:1.0;"/></g><!--MD5=[070343d03bcf1c39281272ba53eb44ec]
link Sub Start to Function link_python_excel--><g id="link_Sub Start_Function link_python_excel"><path d="M781.96,95.12 C790.07,132.9 806.14,207.75 814.92,248.67 " fill="none" id="Sub Start-to-Function link_python_excel" style="stroke:#181818;stroke-width:1.0;"/><polygon fill="#181818" points="816.06,253.97,818.0662,244.3276,815.0026,249.0831,810.2471,246.0195,816.06,253.97" style="stroke:#181818;stroke-width:1.0;"/></g><!--MD5=[197d60dab440d50c79717bbc9ed23025]
link Sub Start_Transfer to Function link_python_project--><g id="link_Sub Start_Transfer_Function link_python_project"><path d="M121.91,95.12 C136.53,133.05 165.55,208.36 181.27,249.17 " fill="none" id="Sub Start_Transfer-to-Function link_python_project" style="stroke:#181818;stroke-width:1.0;"/><polygon fill="#181818" points="183.12,253.97,183.6165,244.1337,181.3222,249.3044,176.1515,247.0101,183.12,253.97" style="stroke:#181818;stroke-width:1.0;"/></g><!--MD5=[e7a6bd845785e7e4a10ef7a0d3c5cd5c]
link Sub Transfer to Daten--><g id="link_Sub Transfer_Daten"><path d="M314.15,95.29 C329.87,110.74 350.61,131.65 368,151 C397.58,183.91 429.52,223.71 449.86,249.66 " fill="none" id="Sub Transfer-to-Daten" style="stroke:#181818;stroke-width:1.0;"/><polygon fill="#181818" points="453.02,253.7,450.6232,244.1472,449.9385,249.7625,444.3232,249.0777,453.02,253.7" style="stroke:#181818;stroke-width:1.0;"/><text fill="#000000" font-family="sans-serif" font-size="13" lengthAdjust="spacing" textLength="63" x="360" y="139.4951">aktualisiert</text></g><!--MD5=[117577507ec9d7b4d1a8e577616b6d7e]
link Function link_python_project to export.py--><g id="link_Function link_python_project_export.py"><path d="M262.43,302.01 C306.45,316.23 364.39,334.62 416,350 C501.98,375.61 602.46,403.18 662.85,419.5 " fill="none" id="Function link_python_project-to-export.py" style="stroke:#181818;stroke-width:1.0;"/><polygon fill="#181818" points="667.84,420.85,660.1894,414.6478,663.0119,419.5501,658.1096,422.3727,667.84,420.85" style="stroke:#181818;stroke-width:1.0;"/></g><!--MD5=[0cb7724729525b87856e40828baacaea]
link export.py to Sub Transfer--><g id="link_export.py_Sub Transfer"><path d="M683.75,410.8 C663.39,395.35 637.91,373.6 620,350 C560.87,272.08 599.13,215.96 526,151 C478.67,108.96 408.2,89.16 356.6,79.92 " fill="none" id="export.py-to-Sub Transfer" style="stroke:#181818;stroke-width:1.0;"/><polygon fill="#181818" points="351.66,79.06,359.8415,84.5429,356.5861,79.9167,361.2123,76.6612,351.66,79.06" style="stroke:#181818;stroke-width:1.0;"/><text fill="#000000" font-family="sans-serif" font-size="13" lengthAdjust="spacing" textLength="77" x="621" y="283.4951">sendet Daten</text></g><!--MD5=[e243844cf6291ea5c75809d044a9a1f4]
link Function link_python_excel to import.py--><g id="link_Function link_python_excel_import.py"><path d="M825.34,302.21 C830.52,329.91 839.19,376.21 844.74,405.91 " fill="none" id="Function link_python_excel-to-import.py" style="stroke:#181818;stroke-width:1.0;"/><polygon fill="#181818" points="845.68,410.89,847.9394,401.3038,844.7517,405.9769,840.0785,402.7892,845.68,410.89" style="stroke:#181818;stroke-width:1.0;"/></g><!--MD5=[7613c66cd50ef5facf5151ffaf9d9064]
link Function CopyFile to kopieren.py--><g id="link_Function CopyFile_kopieren.py"><path d="M1031.81,302.21 C1023.24,329.91 1008.9,376.21 999.7,405.91 " fill="none" id="Function CopyFile-to-kopieren.py" style="stroke:#181818;stroke-width:1.0;"/><polygon fill="#181818" points="998.16,410.89,1004.6283,403.463,999.6294,406.1108,996.9816,401.1119,998.16,410.89" style="stroke:#181818;stroke-width:1.0;"/></g><!--MD5=[46e8a9f420ff655b00ab85a1f7df2aae]
link import.py to Arbeitskopie--><g id="link_import.py_Arbeitskopie"><path d="M866.18,410.8 C878.27,395.5 896.23,376.57 917,367 C960.93,346.76 1101.16,385.51 1134,350 C1194.05,285.06 1167.05,233.04 1134,151 C1125.74,130.5 1109.33,112.33 1093.86,98.61 " fill="none" id="import.py-to-Arbeitskopie" style="stroke:#181818;stroke-width:1.0;"/><polygon fill="#181818" points="1089.96,95.22,1094.1184,104.1479,1093.73,98.5044,1099.3735,98.116,1089.96,95.22" style="stroke:#181818;stroke-width:1.0;"/><text fill="#000000" font-family="sans-serif" font-size="13" lengthAdjust="spacing" textLength="84" x="1170" y="283.4951">schreibt Daten</text></g><!--MD5=[05e6225df82dbf2aeebcef4ba0bc2402]
link kopieren.py to Arbeitskopie--><g id="link_kopieren.py_Arbeitskopie"><path d="M1048.2,425.64 C1124.44,413.19 1253.05,387.19 1281,350 C1334.13,279.29 1331.14,223.86 1281,151 C1245.87,99.95 1174.68,81.63 1122.15,75.2 " fill="none" id="kopieren.py-to-Arbeitskopie" style="stroke:#181818;stroke-width:1.0;"/><polygon fill="#181818" points="1117.12,74.61,1125.6044,79.6116,1122.0873,75.181,1126.5179,71.6639,1117.12,74.61" style="stroke:#181818;stroke-width:1.0;"/><text fill="#000000" font-family="sans-serif" font-size="13" lengthAdjust="spacing" textLength="43" x="1320" y="283.4951">erzeugt</text></g><!--MD5=[9fc9bed1441cab2f7c3ee99518ad0358]
@startuml Component
database "Interne Datenbank"{
    frame "Tabelle"{
        [Daten]
    }
}
node "MS Project"{
    [Sub Start]
    [Sub Copy] - -> [Function CopyFile]
    [Sub Start] - -> [Function link_python_excel]
    [Arbeitskopie]
}

node "MS Excel"{
    [Sub Start_Transfer] - -> [Function link_python_project]
    [Sub Transfer] - -> [Daten] : aktualisiert

}

[Arbeitskopie]
package "Python"{
    [Function link_python_project] - -> [export.py]
    [export.py] - -> [Sub Transfer] :sendet Daten
    [Function link_python_excel] - -> [import.py]
    [Function CopyFile] - -> [kopieren.py]
    [import.py] - -> [Arbeitskopie]:schreibt Daten
    [kopieren.py] - -> [Arbeitskopie]:erzeugt
}


@enduml

PlantUML version 1.2022.7(Mon Aug 22 19:01:30 CEST 2022)
(GPL source distribution)
Java Runtime: Java(TM) SE Runtime Environment
JVM: Java HotSpot(TM) 64-Bit Server VM
Default Encoding: Cp1252
Language: de
Country: DE
--></g></svg>