<?xml version="1.0" encoding="UTF-8" standalone="no"?><svg xmlns="http://www.w3.org/2000/svg" xmlns:xlink="http://www.w3.org/1999/xlink" contentStyleType="text/css" height="556px" preserveAspectRatio="none" style="width:649px;height:556px;background:#FFFFFF;" version="1.1" viewBox="0 0 649 556" width="649px" zoomAndPan="magnify"><defs/><g><ellipse cx="325.75" cy="20" fill="#222222" rx="10" ry="10" style="stroke:#222222;stroke-width:1.0;"/><rect fill="#F1F1F1" height="35.0938" rx="12.5" ry="12.5" style="stroke:#181818;stroke-width:0.5;" width="131" x="260.25" y="50"/><text fill="#000000" font-family="sans-serif" font-size="12" lengthAdjust="spacing" textLength="111" x="270.25" y="72.457">Button wird gedr端ckt</text><polygon fill="#F1F1F1" points="279.75,105.0938,371.75,105.0938,383.75,117.0938,371.75,129.0938,279.75,129.0938,267.75,117.0938,279.75,105.0938" style="stroke:#181818;stroke-width:0.5;"/><text fill="#000000" font-family="sans-serif" font-size="11" lengthAdjust="spacing" textLength="92" x="279.75" y="121.5947">Ist darkMode aktiv?</text><text fill="#000000" font-family="sans-serif" font-size="11" lengthAdjust="spacing" textLength="8" x="259.75" y="114.6768">ja</text><text fill="#000000" font-family="sans-serif" font-size="11" lengthAdjust="spacing" textLength="20" x="383.75" y="114.6768">nein</text><rect fill="#F1F1F1" height="35.0938" rx="12.5" ry="12.5" style="stroke:#181818;stroke-width:0.5;" width="121" x="197.25" y="139.0938"/><text fill="#000000" font-family="sans-serif" font-size="12" lengthAdjust="spacing" textLength="101" x="207.25" y="161.5508">darkMode = inaktiv</text><rect fill="#F1F1F1" height="35.0938" rx="12.5" ry="12.5" style="stroke:#181818;stroke-width:0.5;" width="111" x="338.25" y="139.0938"/><text fill="#000000" font-family="sans-serif" font-size="12" lengthAdjust="spacing" textLength="91" x="348.25" y="161.5508">darkMode = aktiv</text><polygon fill="#F1F1F1" points="325.75,180.1875,337.75,192.1875,325.75,204.1875,313.75,192.1875,325.75,180.1875" style="stroke:#181818;stroke-width:0.5;"/><rect fill="#F1F1F1" height="35.0938" rx="12.5" ry="12.5" style="stroke:#181818;stroke-width:0.5;" width="141" x="255.25" y="224.1875"/><text fill="#000000" font-family="sans-serif" font-size="12" lengthAdjust="spacing" textLength="121" x="265.25" y="246.6445">Toggle CSS Variablen</text><rect fill="#F1F1F1" height="35.0938" rx="12.5" ry="12.5" style="stroke:#181818;stroke-width:0.5;" width="149" x="251.25" y="279.2813"/><text fill="#000000" font-family="sans-serif" font-size="12" lengthAdjust="spacing" textLength="129" x="261.25" y="301.7383">Toggle HTML Elemente</text><polygon fill="#F1F1F1" points="279.75,334.375,371.75,334.375,383.75,346.375,371.75,358.375,279.75,358.375,267.75,346.375,279.75,334.375" style="stroke:#181818;stroke-width:0.5;"/><text fill="#000000" font-family="sans-serif" font-size="11" lengthAdjust="spacing" textLength="92" x="279.75" y="350.876">Ist darkMode aktiv?</text><text fill="#000000" font-family="sans-serif" font-size="11" lengthAdjust="spacing" textLength="8" x="259.75" y="343.958">ja</text><text fill="#000000" font-family="sans-serif" font-size="11" lengthAdjust="spacing" textLength="20" x="383.75" y="343.958">nein</text><rect fill="#F1F1F1" height="35.0938" rx="12.5" ry="12.5" style="stroke:#181818;stroke-width:0.5;" width="306" x="11" y="368.375"/><text fill="#000000" font-family="sans-serif" font-size="12" lengthAdjust="spacing" textLength="286" x="21" y="390.832">F端ge Bezeichnung "darkMode" zu Klassenliste hinzu</text><rect fill="#F1F1F1" height="35.0938" rx="12.5" ry="12.5" style="stroke:#181818;stroke-width:0.5;" width="301" x="337" y="368.375"/><text fill="#000000" font-family="sans-serif" font-size="12" lengthAdjust="spacing" textLength="281" x="347" y="390.832">Entferne Bezeichnung "darkMode" aus Klassenliste</text><polygon fill="#F1F1F1" points="325.75,409.4688,337.75,421.4688,325.75,433.4688,313.75,421.4688,325.75,409.4688" style="stroke:#181818;stroke-width:0.5;"/><rect fill="#F1F1F1" height="50.1875" rx="12.5" ry="12.5" style="stroke:#181818;stroke-width:0.5;" width="265" x="193.25" y="453.4688"/><text fill="#000000" font-family="sans-serif" font-size="12" lengthAdjust="spacing" textLength="245" x="203.25" y="475.9258">Speichern des aktuellen darkMode Zustands</text><text fill="#000000" font-family="sans-serif" font-size="12" lengthAdjust="spacing" textLength="124" x="203.25" y="491.0195">im localStorgae Objekt</text><ellipse cx="325.75" cy="534.6563" fill="none" rx="11" ry="11" style="stroke:#222222;stroke-width:1.0;"/><ellipse cx="325.75" cy="534.6563" fill="#222222" rx="6" ry="6" style="stroke:#111111;stroke-width:1.0;"/><line style="stroke:#181818;stroke-width:1.0;" x1="325.75" x2="325.75" y1="30" y2="50"/><polygon fill="#181818" points="321.75,40,325.75,50,329.75,40,325.75,44" style="stroke:#181818;stroke-width:1.0;"/><line style="stroke:#181818;stroke-width:1.0;" x1="267.75" x2="257.75" y1="117.0938" y2="117.0938"/><line style="stroke:#181818;stroke-width:1.0;" x1="257.75" x2="257.75" y1="117.0938" y2="139.0938"/><polygon fill="#181818" points="253.75,129.0938,257.75,139.0938,261.75,129.0938,257.75,133.0938" style="stroke:#181818;stroke-width:1.0;"/><line style="stroke:#181818;stroke-width:1.0;" x1="383.75" x2="393.75" y1="117.0938" y2="117.0938"/><line style="stroke:#181818;stroke-width:1.0;" x1="393.75" x2="393.75" y1="117.0938" y2="139.0938"/><polygon fill="#181818" points="389.75,129.0938,393.75,139.0938,397.75,129.0938,393.75,133.0938" style="stroke:#181818;stroke-width:1.0;"/><line style="stroke:#181818;stroke-width:1.0;" x1="257.75" x2="257.75" y1="174.1875" y2="192.1875"/><line style="stroke:#181818;stroke-width:1.0;" x1="257.75" x2="313.75" y1="192.1875" y2="192.1875"/><polygon fill="#181818" points="303.75,188.1875,313.75,192.1875,303.75,196.1875,307.75,192.1875" style="stroke:#181818;stroke-width:1.0;"/><line style="stroke:#181818;stroke-width:1.0;" x1="393.75" x2="393.75" y1="174.1875" y2="192.1875"/><line style="stroke:#181818;stroke-width:1.0;" x1="393.75" x2="337.75" y1="192.1875" y2="192.1875"/><polygon fill="#181818" points="347.75,188.1875,337.75,192.1875,347.75,196.1875,343.75,192.1875" style="stroke:#181818;stroke-width:1.0;"/><line style="stroke:#181818;stroke-width:1.0;" x1="325.75" x2="325.75" y1="85.0938" y2="105.0938"/><polygon fill="#181818" points="321.75,95.0938,325.75,105.0938,329.75,95.0938,325.75,99.0938" style="stroke:#181818;stroke-width:1.0;"/><line style="stroke:#181818;stroke-width:1.0;" x1="325.75" x2="325.75" y1="204.1875" y2="224.1875"/><polygon fill="#181818" points="321.75,214.1875,325.75,224.1875,329.75,214.1875,325.75,218.1875" style="stroke:#181818;stroke-width:1.0;"/><line style="stroke:#181818;stroke-width:1.0;" x1="325.75" x2="325.75" y1="259.2813" y2="279.2813"/><polygon fill="#181818" points="321.75,269.2813,325.75,279.2813,329.75,269.2813,325.75,273.2813" style="stroke:#181818;stroke-width:1.0;"/><line style="stroke:#181818;stroke-width:1.0;" x1="267.75" x2="164" y1="346.375" y2="346.375"/><line style="stroke:#181818;stroke-width:1.0;" x1="164" x2="164" y1="346.375" y2="368.375"/><polygon fill="#181818" points="160,358.375,164,368.375,168,358.375,164,362.375" style="stroke:#181818;stroke-width:1.0;"/><line style="stroke:#181818;stroke-width:1.0;" x1="383.75" x2="487.5" y1="346.375" y2="346.375"/><line style="stroke:#181818;stroke-width:1.0;" x1="487.5" x2="487.5" y1="346.375" y2="368.375"/><polygon fill="#181818" points="483.5,358.375,487.5,368.375,491.5,358.375,487.5,362.375" style="stroke:#181818;stroke-width:1.0;"/><line style="stroke:#181818;stroke-width:1.0;" x1="164" x2="164" y1="403.4688" y2="421.4688"/><line style="stroke:#181818;stroke-width:1.0;" x1="164" x2="313.75" y1="421.4688" y2="421.4688"/><polygon fill="#181818" points="303.75,417.4688,313.75,421.4688,303.75,425.4688,307.75,421.4688" style="stroke:#181818;stroke-width:1.0;"/><line style="stroke:#181818;stroke-width:1.0;" x1="487.5" x2="487.5" y1="403.4688" y2="421.4688"/><line style="stroke:#181818;stroke-width:1.0;" x1="487.5" x2="337.75" y1="421.4688" y2="421.4688"/><polygon fill="#181818" points="347.75,417.4688,337.75,421.4688,347.75,425.4688,343.75,421.4688" style="stroke:#181818;stroke-width:1.0;"/><line style="stroke:#181818;stroke-width:1.0;" x1="325.75" x2="325.75" y1="314.375" y2="334.375"/><polygon fill="#181818" points="321.75,324.375,325.75,334.375,329.75,324.375,325.75,328.375" style="stroke:#181818;stroke-width:1.0;"/><line style="stroke:#181818;stroke-width:1.0;" x1="325.75" x2="325.75" y1="433.4688" y2="453.4688"/><polygon fill="#181818" points="321.75,443.4688,325.75,453.4688,329.75,443.4688,325.75,447.4688" style="stroke:#181818;stroke-width:1.0;"/><line style="stroke:#181818;stroke-width:1.0;" x1="325.75" x2="325.75" y1="503.6563" y2="523.6563"/><polygon fill="#181818" points="321.75,513.6563,325.75,523.6563,329.75,513.6563,325.75,517.6563" style="stroke:#181818;stroke-width:1.0;"/><!--MD5=[f65a8444d87fa42ca7b56d54c42afb3b]
@startuml button_pressed
start
:Button wird gedr端ckt;
if(Ist darkMode aktiv?)then(ja)
    :darkMode = inaktiv;
else(nein)
    :darkMode = aktiv;
endif
:Toggle CSS Variablen;
:Toggle HTML Elemente;
if(Ist darkMode aktiv?)then(ja)
    :F端ge Bezeichnung "darkMode" zu Klassenliste hinzu;
else(nein)
    :Entferne Bezeichnung "darkMode" aus Klassenliste;
endif
:Speichern des aktuellen darkMode Zustands
im localStorgae Objekt;


stop
@enduml

PlantUML version 1.2022.7(Mon Aug 22 19:01:30 CEST 2022)
(GPL source distribution)
Java Runtime: Java(TM) SE Runtime Environment
JVM: Java HotSpot(TM) 64-Bit Server VM
Default Encoding: Cp1252
Language: de
Country: DE
--></g></svg>