<?xml version="1.0" encoding="UTF-8" standalone="no"?><svg xmlns="http://www.w3.org/2000/svg" xmlns:xlink="http://www.w3.org/1999/xlink" contentStyleType="text/css" height="221px" preserveAspectRatio="none" style="width:1182px;height:221px;background:#FFFFFF;" version="1.1" viewBox="0 0 1182 221" width="1182px" zoomAndPan="magnify"><defs/><g><!--MD5=[279287902a50b2cce56eb4ce69180019]
cluster Datenbankverbindung--><g id="cluster_Datenbankverbindung"><path d="M8.5,6 L166.5,6 A3.75,3.75 0 0 1 169,8.5 L176,29.6094 L1172.5,29.6094 A2.5,2.5 0 0 1 1175,32.1094 L1175,211.5 A2.5,2.5 0 0 1 1172.5,214 L8.5,214 A2.5,2.5 0 0 1 6,211.5 L6,8.5 A2.5,2.5 0 0 1 8.5,6 " fill="none" style="stroke:#000000;stroke-width:1.5;"/><line style="stroke:#000000;stroke-width:1.5;" x1="6" x2="176" y1="29.6094" y2="29.6094"/><text fill="#000000" font-family="sans-serif" font-size="14" font-weight="bold" lengthAdjust="spacing" textLength="157" x="10" y="22.5332">Datenbankverbindung</text></g><!--MD5=[00e341a7824a3c903d38c17128e0b884]
entity ModInternDatabaseConnector--><g id="elem_ModInternDatabaseConnector"><rect fill="#F1F1F1" height="47.6094" rx="2.5" ry="2.5" style="stroke:#181818;stroke-width:0.5;" width="230" x="509" y="42"/><rect fill="#F1F1F1" height="10" style="stroke:#181818;stroke-width:0.5;" width="15" x="719" y="47"/><rect fill="#F1F1F1" height="2" style="stroke:#181818;stroke-width:0.5;" width="4" x="717" y="49"/><rect fill="#F1F1F1" height="2" style="stroke:#181818;stroke-width:0.5;" width="4" x="717" y="53"/><text fill="#000000" font-family="sans-serif" font-size="14" lengthAdjust="spacing" textLength="190" x="524" y="76.5332">ModInternDatabaseConnector</text></g><!--MD5=[2513195daa4ae62034de2664234402ee]
entity WorkPackageExists--><g id="elem_WorkPackageExists"><rect fill="#F1F1F1" height="47.6094" rx="2.5" ry="2.5" style="stroke:#181818;stroke-width:0.5;" width="164" x="22" y="150"/><rect fill="#F1F1F1" height="10" style="stroke:#181818;stroke-width:0.5;" width="15" x="166" y="155"/><rect fill="#F1F1F1" height="2" style="stroke:#181818;stroke-width:0.5;" width="4" x="164" y="157"/><rect fill="#F1F1F1" height="2" style="stroke:#181818;stroke-width:0.5;" width="4" x="164" y="161"/><text fill="#000000" font-family="sans-serif" font-size="14" lengthAdjust="spacing" textLength="124" x="37" y="184.5332">WorkPackageExists</text></g><!--MD5=[4f01bb7f504c2bdc5971a11ac6278f38]
entity getPosID--><g id="elem_getPosID"><rect fill="#F1F1F1" height="47.6094" rx="2.5" ry="2.5" style="stroke:#181818;stroke-width:0.5;" width="97" x="221.5" y="150"/><rect fill="#F1F1F1" height="10" style="stroke:#181818;stroke-width:0.5;" width="15" x="298.5" y="155"/><rect fill="#F1F1F1" height="2" style="stroke:#181818;stroke-width:0.5;" width="4" x="296.5" y="157"/><rect fill="#F1F1F1" height="2" style="stroke:#181818;stroke-width:0.5;" width="4" x="296.5" y="161"/><text fill="#000000" font-family="sans-serif" font-size="14" lengthAdjust="spacing" textLength="57" x="236.5" y="184.5332">getPosID</text></g><!--MD5=[33a71ef6738707032524fd8d87f0c6c4]
entity getPosNr--><g id="elem_getPosNr"><rect fill="#F1F1F1" height="47.6094" rx="2.5" ry="2.5" style="stroke:#181818;stroke-width:0.5;" width="98" x="354" y="150"/><rect fill="#F1F1F1" height="10" style="stroke:#181818;stroke-width:0.5;" width="15" x="432" y="155"/><rect fill="#F1F1F1" height="2" style="stroke:#181818;stroke-width:0.5;" width="4" x="430" y="157"/><rect fill="#F1F1F1" height="2" style="stroke:#181818;stroke-width:0.5;" width="4" x="430" y="161"/><text fill="#000000" font-family="sans-serif" font-size="14" lengthAdjust="spacing" textLength="58" x="369" y="184.5332">getPosNr</text></g><!--MD5=[e11048987833ec00d0bdcc6dce9124e5]
entity getPosSheet--><g id="elem_getPosSheet"><rect fill="#F1F1F1" height="47.6094" rx="2.5" ry="2.5" style="stroke:#181818;stroke-width:0.5;" width="121" x="487.5" y="150"/><rect fill="#F1F1F1" height="10" style="stroke:#181818;stroke-width:0.5;" width="15" x="588.5" y="155"/><rect fill="#F1F1F1" height="2" style="stroke:#181818;stroke-width:0.5;" width="4" x="586.5" y="157"/><rect fill="#F1F1F1" height="2" style="stroke:#181818;stroke-width:0.5;" width="4" x="586.5" y="161"/><text fill="#000000" font-family="sans-serif" font-size="14" lengthAdjust="spacing" textLength="81" x="502.5" y="184.5332">getPosSheet</text></g><!--MD5=[650515bbf6d7dec592ea9ce19a2e0539]
entity getPackage--><g id="elem_getPackage"><rect fill="#F1F1F1" height="47.6094" rx="2.5" ry="2.5" style="stroke:#181818;stroke-width:0.5;" width="115" x="643.5" y="150"/><rect fill="#F1F1F1" height="10" style="stroke:#181818;stroke-width:0.5;" width="15" x="738.5" y="155"/><rect fill="#F1F1F1" height="2" style="stroke:#181818;stroke-width:0.5;" width="4" x="736.5" y="157"/><rect fill="#F1F1F1" height="2" style="stroke:#181818;stroke-width:0.5;" width="4" x="736.5" y="161"/><text fill="#000000" font-family="sans-serif" font-size="14" lengthAdjust="spacing" textLength="75" x="658.5" y="184.5332">getPackage</text></g><!--MD5=[e14a3c28ad079e46d9bb3fe9d22b126e]
entity getPosition--><g id="elem_getPosition"><rect fill="#F1F1F1" height="47.6094" rx="2.5" ry="2.5" style="stroke:#181818;stroke-width:0.5;" width="110" x="794" y="150"/><rect fill="#F1F1F1" height="10" style="stroke:#181818;stroke-width:0.5;" width="15" x="884" y="155"/><rect fill="#F1F1F1" height="2" style="stroke:#181818;stroke-width:0.5;" width="4" x="882" y="157"/><rect fill="#F1F1F1" height="2" style="stroke:#181818;stroke-width:0.5;" width="4" x="882" y="161"/><text fill="#000000" font-family="sans-serif" font-size="14" lengthAdjust="spacing" textLength="70" x="809" y="184.5332">getPosition</text></g><!--MD5=[8ef578910882d40d036dd5ba266de777]
entity wasDeleted--><g id="elem_wasDeleted"><rect fill="#F1F1F1" height="47.6094" rx="2.5" ry="2.5" style="stroke:#181818;stroke-width:0.5;" width="113" x="939.5" y="150"/><rect fill="#F1F1F1" height="10" style="stroke:#181818;stroke-width:0.5;" width="15" x="1032.5" y="155"/><rect fill="#F1F1F1" height="2" style="stroke:#181818;stroke-width:0.5;" width="4" x="1030.5" y="157"/><rect fill="#F1F1F1" height="2" style="stroke:#181818;stroke-width:0.5;" width="4" x="1030.5" y="161"/><text fill="#000000" font-family="sans-serif" font-size="14" lengthAdjust="spacing" textLength="73" x="954.5" y="184.5332">wasDeleted</text></g><!--MD5=[d1bdb9e69468082c3c1efacad754ca9f]
entity delet--><g id="elem_delet"><rect fill="#F1F1F1" height="47.6094" rx="2.5" ry="2.5" style="stroke:#181818;stroke-width:0.5;" width="71" x="1087.5" y="150"/><rect fill="#F1F1F1" height="10" style="stroke:#181818;stroke-width:0.5;" width="15" x="1138.5" y="155"/><rect fill="#F1F1F1" height="2" style="stroke:#181818;stroke-width:0.5;" width="4" x="1136.5" y="157"/><rect fill="#F1F1F1" height="2" style="stroke:#181818;stroke-width:0.5;" width="4" x="1136.5" y="161"/><text fill="#000000" font-family="sans-serif" font-size="14" lengthAdjust="spacing" textLength="31" x="1102.5" y="184.5332">delet</text></g><!--MD5=[de263c29a55f9157726c860c4576251c]
reverse link ModInternDatabaseConnector to WorkPackageExists--><g id="link_ModInternDatabaseConnector_WorkPackageExists"><path d="M503.83,89.72 C419.74,105.88 304.84,128.44 204,150 C198.16,151.25 192.14,152.56 186.09,153.91 " fill="none" id="ModInternDatabaseConnector-backto-WorkPackageExists" style="stroke:#181818;stroke-width:1.0;"/><polygon fill="#181818" points="508.82,88.77,499.2275,86.5375,503.9096,89.7121,500.7349,94.3942,508.82,88.77" style="stroke:#181818;stroke-width:1.0;"/></g><!--MD5=[17ec385daddda063ea2f29bedddf6f41]
reverse link ModInternDatabaseConnector to getPosID--><g id="link_ModInternDatabaseConnector_getPosID"><path d="M535.06,91.5 C478.2,107.47 403.01,129.14 337,150 C331.02,151.89 324.76,153.94 318.58,156.01 " fill="none" id="ModInternDatabaseConnector-backto-getPosID" style="stroke:#181818;stroke-width:1.0;"/><polygon fill="#181818" points="540.16,90.07,530.4123,88.662,535.3476,91.4266,532.5829,96.3619,540.16,90.07" style="stroke:#181818;stroke-width:1.0;"/></g><!--MD5=[f2fe303747fa0c5ab47efdb9610f1d79]
reverse link ModInternDatabaseConnector to getPosNr--><g id="link_ModInternDatabaseConnector_getPosNr"><path d="M571.21,92.32 C534.76,109.8 486.66,132.87 451.24,149.86 " fill="none" id="ModInternDatabaseConnector-backto-getPosNr" style="stroke:#181818;stroke-width:1.0;"/><polygon fill="#181818" points="576.05,90,566.2049,90.2713,571.5386,92.1558,569.6541,97.4895,576.05,90" style="stroke:#181818;stroke-width:1.0;"/></g><!--MD5=[dc8013f8614e5ffb8edf520756a0a67c]
reverse link ModInternDatabaseConnector to getPosSheet--><g id="link_ModInternDatabaseConnector_getPosSheet"><path d="M604.46,94.25 C592.16,111.41 576.45,133.33 564.72,149.68 " fill="none" id="ModInternDatabaseConnector-backto-getPosSheet" style="stroke:#181818;stroke-width:1.0;"/><polygon fill="#181818" points="607.51,90,599.019,94.9902,604.5998,94.0658,605.5242,99.6466,607.51,90" style="stroke:#181818;stroke-width:1.0;"/></g><!--MD5=[774ab0c5b62e2c178ec61438bb7e0cb2]
reverse link ModInternDatabaseConnector to getPackage--><g id="link_ModInternDatabaseConnector_getPackage"><path d="M643.8,94.25 C656.26,111.41 672.18,133.33 684.06,149.68 " fill="none" id="ModInternDatabaseConnector-backto-getPackage" style="stroke:#181818;stroke-width:1.0;"/><polygon fill="#181818" points="640.71,90,642.7504,99.6352,643.6432,94.0492,649.2291,94.9421,640.71,90" style="stroke:#181818;stroke-width:1.0;"/></g><!--MD5=[7eba8556432c30b81b8ddb66983ff039]
reverse link ModInternDatabaseConnector to getPosition--><g id="link_ModInternDatabaseConnector_getPosition"><path d="M677.75,92.32 C714.86,109.8 763.82,132.87 799.89,149.86 " fill="none" id="ModInternDatabaseConnector-backto-getPosition" style="stroke:#181818;stroke-width:1.0;"/><polygon fill="#181818" points="672.82,90,679.2545,97.4564,677.3425,92.1324,682.6664,90.2204,672.82,90" style="stroke:#181818;stroke-width:1.0;"/></g><!--MD5=[a1f8cdab5299ff58d5903dbfcc0615e5]
reverse link ModInternDatabaseConnector to wasDeleted--><g id="link_ModInternDatabaseConnector_wasDeleted"><path d="M714.24,91.38 C773.44,107.56 852.48,129.52 922,150 C927.68,151.67 933.59,153.45 939.49,155.25 " fill="none" id="ModInternDatabaseConnector-backto-wasDeleted" style="stroke:#181818;stroke-width:1.0;"/><polygon fill="#181818" points="709.29,90.03,716.9064,96.2743,714.1108,91.3564,719.0287,88.5609,709.29,90.03" style="stroke:#181818;stroke-width:1.0;"/></g><!--MD5=[6ecc4db6f70e1812c264b05150ccc255]
reverse link ModInternDatabaseConnector to delet--><g id="link_ModInternDatabaseConnector_delet"><path d="M744.47,81.91 C835.24,94.94 962.08,117 1070,150 C1075.76,151.76 1081.72,153.96 1087.49,156.29 " fill="none" id="ModInternDatabaseConnector-backto-delet" style="stroke:#181818;stroke-width:1.0;"/><polygon fill="#181818" points="739.36,81.18,747.6954,86.4261,744.3086,81.8951,748.8396,78.5083,739.36,81.18" style="stroke:#181818;stroke-width:1.0;"/></g><!--MD5=[c83a06fd5513a754d4a7e0c5d7ec5f18]
@startuml DatabaseConnector
    package "Datenbankverbindung" {
        [ModInternDatabaseConnector] <- - [WorkPackageExists]
        [ModInternDatabaseConnector] <- - [getPosID]
        [ModInternDatabaseConnector] <- - [getPosNr]
        [ModInternDatabaseConnector] <- - [getPosSheet]
        [ModInternDatabaseConnector] <- - [getPackage]
        [ModInternDatabaseConnector] <- - [getPosition]
        [ModInternDatabaseConnector] <- - [wasDeleted]
        [ModInternDatabaseConnector] <- - [delet]
    }
@enduml

PlantUML version 1.2022.7(Mon Aug 22 19:01:30 CEST 2022)
(GPL source distribution)
Java Runtime: Java(TM) SE Runtime Environment
JVM: Java HotSpot(TM) 64-Bit Server VM
Default Encoding: Cp1252
Language: de
Country: DE
--></g></svg>